<?xml version="1.0" encoding="UTF-8"?>
<svg id="Layer_1" data-name="Layer 1" xmlns="http://www.w3.org/2000/svg" xmlns:xlink="http://www.w3.org/1999/xlink" viewBox="0 0 605.34 247.28">
  <defs>
    <style>
      .cls-1 {
        fill: url(#linear-gradient);
      }

      .cls-1, .cls-2 {
        stroke-width: 0px;
      }

      .cls-2 {
        fill: #fff;
      }
    </style>
    <linearGradient id="linear-gradient" x1="45.14" y1="115.75" x2="137.97" y2="342.42" gradientTransform="translate(0 353.25) scale(1 -1)" gradientUnits="userSpaceOnUse">
      <stop offset="0" stop-color="#f72585"/>
      <stop offset=".53" stop-color="#3a00ff"/>
      <stop offset="1" stop-color="#4cc9f0"/>
    </linearGradient>
  </defs>
  <path class="cls-2" d="M320.87,147.68v48.81h-21.73v-43.84c0-12.85-6.18-18.33-16.78-18.33-11.13,0-19.08,6.34-19.08,23.46v38.7h-21.56v-79.12h21.38v11.99h.35c5.48-9.08,14.67-14.56,26.68-14.56,17.67,0,30.74,9.59,30.74,32.88Z"/>
  <path class="cls-2" d="M334.94,165.83v-48.47h22.26v44.7c0,12.33,6.01,17.64,15.37,17.64,10.78,0,18.02-6.85,18.02-24.32v-38.02h21.73v79.12h-21.38v-12.16h-.35c-4.95,8.56-12.72,14.73-25.44,14.73-16.61,0-30.21-9.76-30.21-33.22Z"/>
  <path class="cls-2" d="M513.75,156.92c0,24.83-19.26,42.13-45.23,42.13s-45.23-17.3-45.23-42.13,19.26-42.13,45.23-42.13,45.23,17.3,45.23,42.13ZM445.55,156.92c0,13.53,9.72,22.26,22.97,22.26s22.79-8.73,22.79-22.26-9.54-22.26-22.79-22.26-22.97,8.73-22.97,22.26Z"/>
  <path class="cls-2" d="M603.75,147.68v48.81h-21.73v-43.84c0-12.85-6.18-18.33-16.79-18.33-11.13,0-19.08,6.34-19.08,23.46v38.7h-21.56v-79.12h21.38v11.99h.35c5.48-9.08,14.67-14.56,26.68-14.56,17.67,0,30.74,9.59,30.74,32.88Z"/>
  <path class="cls-1" d="M134.46,2.39l-47.88,26.8v43.39l-38.76-21.71h-.02L1.59,76.73v142.29l46.18,25.86h.02l49.58-27.76v-41.49l37.08,20.74,47.88-26.8V29.19L134.46,2.39ZM12.42,82.79l35.36-19.78h.02l38.76,21.68v72.76L12.42,115.97v-33.18ZM86.56,211.06l-38.78,21.69-35.36-19.78v-84.88l74.14,41.49v41.49ZM171.52,163.5l-37.06,20.74-37.06-20.72v-72.76l74.14,41.49v31.25h-.02ZM171.52,120.13l-74.14-41.49v-43.39l37.08-20.74,37.06,20.74v84.88Z"/>
</svg>