<svg width="313" height="48" viewBox="0 0 313 48" fill="none" xmlns="http://www.w3.org/2000/svg">
<path d="M14.0021 14.4823C18.3778 14.4823 20.5031 16.2926 20.5031 19.3513C20.5031 22.3477 18.6903 24.1579 14.0646 24.1579C9.43893 24.1579 7.75117 22.2852 7.75117 19.3513C7.75117 16.4174 9.50144 14.4823 14.0021 14.4823ZM14.5022 42.6353C7.00106 42.6353 5.25079 41.8238 5.25079 39.5766C5.25079 38.1408 6.626 36.7051 9.68897 36.7051H20.9407C23.3785 36.7051 24.1912 37.8287 24.1912 39.1396C24.1912 41.5117 22.5034 42.6353 14.5022 42.6353ZM14.6272 47.6292C25.7539 47.6917 29.567 44.6329 29.567 39.1396C29.567 34.5827 26.9416 31.8361 20.6906 31.8361C17.4401 31.8361 13.6896 32.0233 10.189 32.0233C8.43878 32.0233 7.62615 31.5864 7.62615 30.4627C7.62615 29.9633 7.9387 29.5888 8.31376 28.9646L8.93885 27.9658C10.4391 28.4028 12.1268 28.59 14.0021 28.59C22.0033 28.59 26.3165 25.9058 26.3165 20.7246C26.3165 16.792 23.5661 15.2314 19.9405 14.5447V14.4823C22.0033 14.6071 23.441 14.6071 24.8788 14.6071H28.6918V8.92658H14.3147C6.37597 8.92658 1.68776 12.5471 1.68776 18.9768C1.68776 23.3464 4.06311 26.4676 8.43878 27.8409L6.18844 28.8397C3.81308 29.6512 2.50038 31.2118 2.50038 32.71C2.50038 34.8948 4.12562 36.2681 7.00106 36.6427C2.43787 37.2045 0 39.1396 0 41.6366C0 45.3196 3.18798 47.6917 14.6272 47.6292Z" fill="#101828"/>
<path d="M38.3666 38.2657V23.4089C38.3666 18.2901 40.4295 16.4798 45.6802 16.4798H48.5557V8.92658H46.8679C42.4298 8.92658 39.8044 10.9241 38.4917 18.5398H38.3666V8.92658H31.6156V38.2657H38.3666Z" fill="#101828"/>
<path d="M64.1664 39.0772C73.4804 39.0772 79.1687 33.1469 79.1687 23.5337C79.1687 13.858 73.1678 8.1775 64.1664 8.1775C55.1026 8.1775 49.1017 13.858 49.1017 23.5337C49.1017 33.1469 54.7275 39.0772 64.1664 39.0772ZM64.1664 14.295C69.3547 14.295 72.4802 17.8532 72.4802 23.4713C72.4802 29.1518 69.4798 32.8973 64.1039 32.8973C58.7906 32.8973 55.8527 29.1518 55.8527 23.4713C55.8527 17.8532 58.9157 14.295 64.1664 14.295Z" fill="#101828"/>
<path d="M101.665 38.2657H108.416V8.92658H101.665V26.2803C101.665 30.4627 99.0394 32.9597 94.7262 32.9597C90.1631 32.9597 88.6003 29.8385 88.6003 26.2803V8.92658H81.8493V28.0906C81.8493 34.3954 84.5372 39.0772 91.6008 39.0772C96.539 39.0772 100.29 36.5178 101.602 30.213H101.665V38.2657Z" fill="#101828"/>
<path d="M119.556 20.9119C119.556 16.7295 122.181 14.2326 126.494 14.2326C131.057 14.2326 132.62 17.3538 132.62 20.9119V38.2657H139.371V19.1641C139.371 12.7968 136.683 8.1775 129.62 8.1775C124.681 8.1775 120.931 10.7369 119.618 16.9792H119.556V8.92658H112.805V38.2657H119.556V20.9119Z" fill="#101828"/>
<path d="M156.387 32.9597C151.136 32.9597 148.761 29.5888 148.761 23.721C148.761 17.6659 151.261 14.1702 156.387 14.1702C161.2 14.1702 164.201 17.7907 164.201 23.4089V23.9082C164.201 29.7136 161.2 32.9597 156.387 32.9597ZM164.201 38.2657H170.952V0H164.201V17.3538H164.138C162.825 11.2987 159.512 8.11507 153.637 8.1775C146.26 8.11507 142.072 13.9829 142.072 23.721C142.072 33.2094 146.01 39.0772 153.637 39.0772C159.325 39.0772 162.763 35.8936 164.076 29.9633H164.201V38.2657Z" fill="#101828"/>
<path d="M196.567 21.1616L203.068 20.1004C201.881 12.5471 197.818 8.1775 189.004 8.1775C180.065 8.1775 173.876 13.9205 173.876 23.6586C173.876 33.6463 179.94 39.0772 189.191 39.0772C197.692 39.0772 201.943 34.3954 203.131 26.9046L196.692 25.5937C195.755 29.7761 194.004 32.8973 189.066 32.8973C184.065 32.8973 180.752 29.5888 180.752 23.5961C180.752 17.2913 184.128 14.295 188.941 14.295C193.504 14.295 195.692 17.0417 196.567 21.1616Z" fill="#101828"/>
<path d="M219.769 39.0772C229.082 39.0772 234.771 33.1469 234.771 23.5337C234.771 13.858 228.77 8.1775 219.769 8.1775C210.705 8.1775 204.704 13.858 204.704 23.5337C204.704 33.1469 210.33 39.0772 219.769 39.0772ZM219.769 14.295C224.957 14.295 228.082 17.8532 228.082 23.4713C228.082 29.1518 225.082 32.8973 219.706 32.8973C214.393 32.8973 211.455 29.1518 211.455 23.4713C211.455 17.8532 214.518 14.295 219.769 14.295Z" fill="#101828"/>
<path d="M253.641 38.2657L265.143 8.92658H258.08L254.016 20.2877C252.641 24.2204 251.204 28.4028 249.891 32.1482H249.766C248.516 28.4028 247.015 24.2204 245.64 20.2877L241.64 8.92658H234.326L245.953 38.2657H253.641Z" fill="#101828"/>
<path d="M279.403 13.858C284.029 13.858 286.404 16.2301 286.779 20.7871H271.402C272.152 16.0429 274.965 13.858 279.403 13.858ZM279.591 39.0148C287.342 39.0148 291.342 35.1445 292.843 29.5264L286.967 27.8409C286.092 30.8373 284.341 33.1469 279.653 33.1469C274.84 33.1469 271.964 30.7124 271.339 25.781H292.905C293.03 24.2204 293.03 23.0343 293.03 21.8483C293.03 13.7956 288.529 8.1775 279.591 8.1775C270.464 8.1775 264.588 14.0453 264.588 23.9707C264.588 33.6463 270.589 39.0148 279.591 39.0148Z" fill="#101828"/>
<path d="M302.811 38.2657V23.4089C302.811 18.2901 304.874 16.4798 310.125 16.4798H313V8.92658H311.312C306.874 8.92658 304.249 10.9241 302.936 18.5398H302.811V8.92658H296.06V38.2657H302.811Z" fill="#101828"/>
</svg>
