<?xml version="1.0" encoding="utf-8"?>
<!-- Generator: Adobe Illustrator 16.0.0, SVG Export Plug-In . SVG Version: 6.00 Build 0)  -->
<!DOCTYPE svg PUBLIC "-//W3C//DTD SVG 1.1//EN" "http://www.w3.org/Graphics/SVG/1.1/DTD/svg11.dtd">
<svg version="1.1" id="Layer_1" xmlns="http://www.w3.org/2000/svg" xmlns:xlink="http://www.w3.org/1999/xlink" x="0px" y="0px"
	 width="450px" height="79px" viewBox="0 0 450 79" enable-background="new 0 0 450 79" xml:space="preserve">
<g>
	<polygon fill-rule="evenodd" clip-rule="evenodd" fill="#FCB914" points="45.283,3.265 0,3.375 0.024,48.559 	"/>
	<g>
		<polygon fill-rule="evenodd" clip-rule="evenodd" fill="#6F7272" points="0.012,75.737 27.169,48.559 54.338,75.778 
			72.364,75.778 35.891,39.256 58.321,17.071 72.193,3.265 58.868,3.321 0,62.144 		"/>
		<g>
			<path fill-rule="evenodd" clip-rule="evenodd" fill="#6F7272" d="M439.841,38.254c-2.753-1.214-6.156-2.288-10.201-3.225h-0.006
				l-11.362-2.672h-0.007c-2.266-0.54-4.181-1.127-5.741-1.762c-1.159-0.47-2.134-0.975-2.926-1.516
				c-0.836-0.764-1.47-1.67-1.894-2.718c-0.43-1.056-0.646-2.239-0.646-3.548c0-1.794,0.338-3.39,1.012-4.791
				c0.684-1.416,1.704-2.609,3.059-3.577h0.007c1.319-0.931,2.906-1.629,4.77-2.084c1.813-0.443,3.881-0.664,6.208-0.664
				c2.319,0,4.421,0.255,6.306,0.771c1.921,0.526,3.602,1.321,5.032,2.386c1.467,1.09,2.594,2.391,3.39,3.897
				c0.41,0.779,0.73,1.614,0.96,2.499h8.172v-0.008h1.854c-0.137-2.524-0.692-4.813-1.675-6.87c-1.137-2.381-2.85-4.47-5.137-6.273
				V8.095c-2.303-1.823-5.022-3.194-8.151-4.114c-3.171-0.931-6.773-1.396-10.799-1.396c-3.934,0-7.44,0.455-10.523,1.357
				c-3.034,0.892-5.666,2.224-7.887,3.996c-2.191,1.751-3.83,3.782-4.911,6.099c-1.086,2.323-1.629,4.964-1.629,7.926
				c0,2.653,0.342,4.985,1.022,6.998c0.663,1.965,1.653,3.64,2.975,5.029c1.343,1.404,3.238,2.688,5.69,3.843
				c2.516,1.187,5.589,2.226,9.219,3.111l13.126,3.188h0.016c2.226,0.563,4.104,1.181,5.632,1.854
				c0.262,0.114,0.514,0.231,0.757,0.351c0.753,0.438,1.378,0.901,1.877,1.392c0.849,0.823,1.486,1.819,1.908,2.986
				c0.406,1.121,0.611,2.388,0.611,3.796c0,1.93-0.401,3.671-1.2,5.223c-0.796,1.546-1.981,3.196-3.551,4.311l0.001,0.004
				c-1.523,1.09-3.313,1.907-5.366,2.449c-2.008,0.53-4.256,0.796-6.743,0.796c-2.686,0-5.078-0.299-7.177-0.896
				c-2.15-0.614-3.996-1.545-5.537-2.8l0.002-0.002c-1.566-1.253-2.787-3.138-3.67-4.996c-0.152-0.32-0.294-0.646-0.423-0.982
				h-10.431c0.302,1.995,0.788,3.839,1.471,5.529c1.145,2.846,2.847,5.262,5.098,7.247v0.006c2.266,2.005,5.016,3.513,8.249,4.523
				c3.283,1.024,7.071,1.535,11.372,1.535c4.482,0,8.456-0.502,11.918-1.51c3.414-0.992,6.348-2.479,8.803-4.461
				c2.41-1.945,4.217-4.256,5.418-6.931c1.212-2.696,1.818-5.792,1.818-9.283c0-2.688-0.352-5.048-1.054-7.088
				c-0.686-1.988-1.705-3.674-3.058-5.055l-0.009-0.006C444.516,40.717,442.498,39.429,439.841,38.254z"/>
			<path fill-rule="evenodd" clip-rule="evenodd" fill="#6F7272" d="M201.799,3.289c-2.282-0.462-4.654-0.704-7.087-0.704
				s-4.802,0.242-7.085,0.704c-2.363,0.478-4.631,1.182-6.777,2.087c-2.201,0.93-4.296,2.077-6.254,3.414
				c-1.957,1.333-3.8,2.882-5.5,4.616c-1.701,1.733-3.218,3.611-4.528,5.606c-1.309,1.996-2.435,4.131-3.346,6.375
				c-0.89,2.188-1.58,4.501-2.048,6.911c-0.454,2.328-0.691,4.744-0.691,7.223c0,2.481,0.237,4.897,0.691,7.226
				c0.468,2.41,1.158,4.723,2.048,6.911c0.911,2.243,2.037,4.378,3.346,6.378c1.311,1.992,2.827,3.871,4.528,5.606
				c1.7,1.732,3.545,3.28,5.5,4.616c1.96,1.334,4.055,2.479,6.254,3.409h0.013c2.15,0.911,4.415,1.614,6.765,2.089
				c2.283,0.462,4.652,0.702,7.085,0.702s4.805-0.241,7.085-0.702c2.366-0.478,4.634-1.183,6.779-2.089
				c2.201-0.93,4.296-2.075,6.253-3.409c1.956-1.336,3.8-2.884,5.501-4.616c1.701-1.735,3.221-3.614,4.528-5.609
				c1.309-1.997,2.436-4.132,3.347-6.375c0.887-2.188,1.579-4.501,2.048-6.911c0.452-2.328,0.688-4.744,0.688-7.226
				s-0.235-4.895-0.688-7.224c-0.469-2.409-1.161-4.723-2.048-6.91c-0.911-2.244-2.038-4.379-3.347-6.375
				c-1.308-1.995-2.827-3.873-4.528-5.606c-1.701-1.737-3.542-3.283-5.499-4.619c-1.959-1.334-4.054-2.481-6.255-3.411
				C206.431,4.471,204.164,3.767,201.799,3.289L201.799,3.289z M209.855,16.406c1.486,1.015,2.872,2.173,4.132,3.456l0.004,0.004
				l0.006,0.006c1.261,1.285,2.396,2.696,3.391,4.214c0.988,1.505,1.838,3.117,2.526,4.813c0.68,1.673,1.203,3.415,1.549,5.203
				c0.343,1.762,0.523,3.575,0.523,5.42c0,1.848-0.181,3.662-0.523,5.422c-0.346,1.789-0.869,3.528-1.549,5.204
				c-0.688,1.695-1.538,3.306-2.524,4.813c-1.013,1.543-2.15,2.959-3.393,4.224h-0.01c-1.256,1.279-2.641,2.439-4.134,3.459
				c-1.477,1.006-3.057,1.871-4.719,2.572c-1.642,0.695-3.351,1.227-5.104,1.579c-1.727,0.351-3.507,0.533-5.318,0.533
				c-1.811,0-3.589-0.183-5.316-0.533c-1.752-0.353-3.462-0.884-5.103-1.579c-1.662-0.701-3.243-1.566-4.72-2.572
				c-1.515-1.033-2.901-2.194-4.144-3.459c-1.241-1.265-2.38-2.681-3.391-4.224c-0.988-1.507-1.837-3.117-2.525-4.813
				c-0.679-1.673-1.203-3.415-1.55-5.204c-0.343-1.76-0.522-3.574-0.522-5.422c0-1.845,0.18-3.659,0.522-5.42
				c0.347-1.788,0.871-3.53,1.55-5.203c0.688-1.695,1.537-3.308,2.525-4.813c0.995-1.518,2.133-2.929,3.391-4.214l0.006-0.006
				l0.005-0.004c1.26-1.283,2.645-2.441,4.132-3.456c1.476-1.008,3.059-1.875,4.721-2.575c1.641-0.695,3.348-1.228,5.101-1.582
				c1.729-0.347,3.508-0.53,5.318-0.53c1.813,0,3.592,0.184,5.318,0.53c1.755,0.354,3.462,0.887,5.104,1.582
				C206.796,14.531,208.378,15.398,209.855,16.406z"/>
			<path fill-rule="evenodd" clip-rule="evenodd" fill="#6F7272" d="M81.458,3.252v26.224v2.137v0.136v44.046h9.305v-44.2
				l0.011-0.018c0.021-2.68,0.573-5.228,1.551-7.541c1.021-2.412,2.506-4.588,4.345-6.413l-0.004-0.004
				c1.848-1.83,4.069-3.313,6.551-4.332c2.382-0.979,4.984-1.519,7.698-1.519s5.315,0.54,7.698,1.519
				c2.468,1.013,4.689,2.497,6.545,4.336l0.006-0.004c1.845,1.832,3.342,4.035,4.369,6.496c0.986,2.362,1.531,4.941,1.531,7.634
				v2.272l0,0v41.773h9.313V31.748h-0.008c0-3.97-0.792-7.746-2.224-11.177c-1.489-3.559-3.678-6.773-6.404-9.475
				c-2.725-2.702-5.967-4.875-9.555-6.35c-3.461-1.422-7.269-2.206-11.271-2.206c-3.036,0-5.95,0.447-8.677,1.282
				c-2.834,0.862-5.489,2.145-7.894,3.769l-3.581,2.422V5.719V3.252H81.458z"/>
			<path fill-rule="evenodd" clip-rule="evenodd" fill="#6F7272" d="M354.602,3.289c-2.284-0.462-4.654-0.704-7.087-0.704
				c-2.434,0-4.803,0.242-7.088,0.704c-2.361,0.478-4.63,1.182-6.775,2.087c-2.201,0.93-4.295,2.077-6.257,3.414
				c-1.954,1.333-3.797,2.882-5.497,4.616c-1.701,1.733-3.221,3.611-4.527,5.606c-1.313,1.996-2.435,4.131-3.347,6.375
				c-0.889,2.188-1.579,4.501-2.05,6.911c-0.452,2.328-0.689,4.744-0.689,7.223c0,2.481,0.237,4.897,0.689,7.226
				c0.471,2.41,1.161,4.723,2.05,6.911c0.912,2.243,2.034,4.378,3.347,6.378c1.307,1.992,2.826,3.871,4.527,5.606
				c1.7,1.732,3.543,3.28,5.5,4.616c1.96,1.334,4.053,2.479,6.254,3.409h0.012c2.152,0.911,4.416,1.614,6.764,2.089
				c2.285,0.462,4.654,0.702,7.088,0.702c2.433,0,4.802-0.241,7.084-0.702c2.365-0.478,4.633-1.183,6.779-2.089
				c2.201-0.93,4.295-2.075,6.253-3.409c1.957-1.336,3.8-2.884,5.501-4.616c1.702-1.735,3.218-3.614,4.527-5.609
				c1.31-1.997,2.435-4.132,3.348-6.375c0.888-2.188,1.578-4.501,2.048-6.911c0.452-2.328,0.688-4.744,0.688-7.226
				s-0.235-4.895-0.688-7.224c-0.47-2.409-1.16-4.723-2.048-6.91c-0.913-2.244-2.038-4.379-3.348-6.375
				c-1.31-1.995-2.825-3.873-4.527-5.606c-1.701-1.737-3.543-3.283-5.499-4.619c-1.959-1.334-4.054-2.481-6.255-3.411
				C359.234,4.471,356.965,3.767,354.602,3.289L354.602,3.289z M362.654,16.406c1.489,1.015,2.874,2.173,4.135,3.456l0.005,0.004
				l0.005,0.006c1.258,1.285,2.396,2.696,3.391,4.214c0.988,1.505,1.838,3.117,2.525,4.813c0.68,1.673,1.204,3.415,1.55,5.203
				c0.342,1.762,0.523,3.575,0.523,5.42c0,1.848-0.182,3.662-0.523,5.422c-0.346,1.789-0.87,3.528-1.55,5.204
				c-0.688,1.695-1.537,3.306-2.525,4.813c-1.013,1.543-2.148,2.959-3.391,4.224h-0.01c-1.256,1.279-2.641,2.439-4.135,3.459
				c-1.477,1.006-3.057,1.871-4.718,2.572c-1.643,0.695-3.351,1.227-5.104,1.579c-1.726,0.351-3.505,0.533-5.316,0.533
				c-1.811,0-3.589-0.183-5.317-0.533c-1.755-0.353-3.462-0.884-5.104-1.579c-1.66-0.701-3.24-1.566-4.717-2.572
				c-1.516-1.033-2.904-2.194-4.145-3.459s-2.38-2.681-3.393-4.224c-0.985-1.507-1.836-3.117-2.523-4.813
				c-0.681-1.673-1.204-3.415-1.552-5.204c-0.34-1.76-0.521-3.574-0.521-5.422c0-1.845,0.181-3.659,0.521-5.42
				c0.348-1.788,0.871-3.53,1.552-5.203c0.688-1.695,1.538-3.308,2.523-4.813c0.997-1.518,2.135-2.929,3.393-4.214l0.006-0.006
				l0.004-0.004c1.261-1.283,2.646-2.441,4.133-3.456c1.476-1.008,3.059-1.875,4.719-2.575c1.643-0.695,3.35-1.228,5.103-1.582
				c1.728-0.347,3.509-0.53,5.319-0.53c1.812,0,3.591,0.184,5.319,0.53c1.751,0.354,3.46,0.887,5.102,1.582
				C359.597,14.531,361.177,15.398,362.654,16.406z"/>
			<polygon fill-rule="evenodd" clip-rule="evenodd" fill="#6F7272" points="237.132,3.278 247.321,3.278 271.094,66.673 
				294.903,3.278 305.057,3.278 277.887,75.728 273.626,75.728 268.709,75.728 264.303,75.728 			"/>
		</g>
	</g>
</g>
</svg>
