<?xml version="1.0" encoding="UTF-8"?>
<svg id="Layer_1" data-name="Layer 1" xmlns="http://www.w3.org/2000/svg" xmlns:xlink="http://www.w3.org/1999/xlink" version="1.1" viewBox="0 0 605.3 247.3">
  <defs>
    <style>
      .cls-1 {
        fill: url(#linear-gradient);
      }

      .cls-1, .cls-2, .cls-3, .cls-4 {
        stroke-width: 0px;
      }

      .cls-2 {
        fill: #000;
      }

      .cls-3 {
        fill: url(#linear-gradient-2);
      }

      .cls-4 {
        fill: #fff;
      }
    </style>
    <linearGradient id="linear-gradient" x1="45.1" y1="115.7" x2="138" y2="342.4" gradientTransform="translate(0 353.3) scale(1 -1)" gradientUnits="userSpaceOnUse">
      <stop offset="0" stop-color="#f72585"/>
      <stop offset=".5" stop-color="#3a00ff"/>
      <stop offset="1" stop-color="#4cc9f0"/>
    </linearGradient>
    <linearGradient id="linear-gradient-2" x1="670.5" x2="763.3" y2="342.4" xlink:href="#linear-gradient"/>
  </defs>
  <g>
    <path class="cls-2" d="M320.9,147.7v48.8h-21.7v-43.8c0-12.8-6.2-18.3-16.8-18.3s-19.1,6.3-19.1,23.5v38.7h-21.6v-79.1h21.4v12h.4c5.5-9.1,14.7-14.6,26.7-14.6,17.7,0,30.7,9.6,30.7,32.9Z"/>
    <path class="cls-2" d="M334.9,165.8v-48.5h22.3v44.7c0,12.3,6,17.6,15.4,17.6s18-6.8,18-24.3v-38h21.7v79.1h-21.4v-12.2h-.4c-4.9,8.6-12.7,14.7-25.4,14.7s-30.2-9.8-30.2-33.2Z"/>
    <path class="cls-2" d="M513.7,156.9c0,24.8-19.3,42.1-45.2,42.1s-45.2-17.3-45.2-42.1,19.3-42.1,45.2-42.1,45.2,17.3,45.2,42.1ZM445.5,156.9c0,13.5,9.7,22.3,23,22.3s22.8-8.7,22.8-22.3-9.5-22.3-22.8-22.3-23,8.7-23,22.3Z"/>
    <path class="cls-2" d="M603.7,147.7v48.8h-21.7v-43.8c0-12.8-6.2-18.3-16.8-18.3s-19.1,6.3-19.1,23.5v38.7h-21.6v-79.1h21.4v12h.4c5.5-9.1,14.7-14.6,26.7-14.6,17.7,0,30.7,9.6,30.7,32.9Z"/>
    <path class="cls-1" d="M134.5,2.4l-47.9,26.8v43.4l-38.8-21.7h0L1.6,76.7v142.3l46.2,25.9h0l49.6-27.8v-41.5l37.1,20.7,47.9-26.8V29.2L134.5,2.4ZM12.4,82.8l35.4-19.8h0l38.8,21.7v72.8L12.4,116v-33.2ZM86.6,211.1l-38.8,21.7-35.4-19.8v-84.9l74.1,41.5v41.5ZM171.5,163.5l-37.1,20.7-37.1-20.7v-72.8l74.1,41.5v31.3h0ZM171.5,120.1l-74.1-41.5v-43.4l37.1-20.7,37.1,20.7v84.9Z"/>
  </g>
  <g>
    <path class="cls-4" d="M946.2,147.7v48.8h-21.7v-43.8c0-12.8-6.2-18.3-16.8-18.3s-19.1,6.3-19.1,23.5v38.7h-21.6v-79.1h21.4v12h.4c5.5-9.1,14.7-14.6,26.7-14.6,17.7,0,30.7,9.6,30.7,32.9Z"/>
    <path class="cls-4" d="M960.3,165.8v-48.5h22.3v44.7c0,12.3,6,17.6,15.4,17.6s18-6.8,18-24.3v-38h21.7v79.1h-21.4v-12.2h-.4c-4.9,8.6-12.7,14.7-25.4,14.7s-30.2-9.8-30.2-33.2Z"/>
    <path class="cls-4" d="M1139.1,156.9c0,24.8-19.3,42.1-45.2,42.1s-45.2-17.3-45.2-42.1,19.3-42.1,45.2-42.1,45.2,17.3,45.2,42.1ZM1070.9,156.9c0,13.5,9.7,22.3,23,22.3s22.8-8.7,22.8-22.3-9.5-22.3-22.8-22.3-23,8.7-23,22.3Z"/>
    <path class="cls-4" d="M1229.1,147.7v48.8h-21.7v-43.8c0-12.8-6.2-18.3-16.8-18.3s-19.1,6.3-19.1,23.5v38.7h-21.6v-79.1h21.4v12h.4c5.5-9.1,14.7-14.6,26.7-14.6,17.7,0,30.7,9.6,30.7,32.9Z"/>
    <path class="cls-3" d="M759.8,2.4l-47.9,26.8v43.4l-38.8-21.7h0l-46.2,25.9v142.3l46.2,25.9h0l49.6-27.8v-41.5l37.1,20.7,47.9-26.8V29.2l-47.9-26.8ZM637.8,82.8l35.4-19.8h0l38.8,21.7v72.8l-74.1-41.5v-33.2ZM711.9,211.1l-38.8,21.7-35.4-19.8v-84.9l74.1,41.5v41.5ZM796.9,163.5l-37.1,20.7-37.1-20.7v-72.8l74.1,41.5v31.3h0ZM796.9,120.1l-74.1-41.5v-43.4l37.1-20.7,37.1,20.7v84.9Z"/>
  </g>
</svg>