<?xml version="1.0" encoding="UTF-8" standalone="no"?>
<!DOCTYPE svg PUBLIC "-//W3C//DTD SVG 1.1//EN" "http://www.w3.org/Graphics/SVG/1.1/DTD/svg11.dtd">
<svg version="1.1" xmlns:xl="http://www.w3.org/1999/xlink" xmlns="http://www.w3.org/2000/svg" xmlns:dc="http://purl.org/dc/elements/1.1/" viewBox="-255.22516 1925.6416 830.94 184.88415" width="830.94" height="184.88415">
  <defs/>
  <metadata> Produced by OmniGraffle 7.24.1\n2024-12-13 03:41:24 +0000</metadata>
  <g id="Logo" stroke-dasharray="none" fill="none" fill-opacity="1" stroke="none" stroke-opacity="1">
    <title>Logo</title>
    <g id="Logo_Layer_1">
      <title>Layer 1</title>
      <g id="Graphic_331">
        <path d="M -140.97091 1985.8848 L -182.51791 1985.8848 L -182.51791 2110.5258 L -213.67816 2110.5258 L -213.67816 1985.8848 L -255.22516 1985.8848 L -255.22516 1956.802 L -140.97091 1956.802 Z" fill="black"/>
      </g>
      <g id="Graphic_330">
        <path d="M -16.32991 2110.5258 L -130.58416 2110.5258 L -130.58416 1956.802 L -16.32991 1956.802 L -16.32991 1985.8848 L -99.42391 1985.8848 L -99.42391 2019.1224 L -37.10341 2019.1224 L -37.10341 2048.2053 L -99.42391 2048.2053 L -99.42391 2081.443 L -16.32991 2081.443 Z" fill="black"/>
      </g>
      <g id="Graphic_329">
        <path d="M 108.31109 2110.5258 L 77.15084 2110.5258 L 77.15084 2059.8385 L 25.21709 2007.9047 L 25.21709 2110.5258 L -5.943159 2110.5258 L -5.943159 1956.802 L 16.076751 1956.802 L 77.15084 2017.876 L 77.15084 1956.802 L 108.31109 1956.802 Z" fill="black"/>
      </g>
      <g id="Graphic_328">
        <path d="M 232.9521 2064.824 C 232.9521 2077.1498 228.4166 2087.848 219.34545 2096.9192 C 210.2743 2105.9903 199.22984 2110.5258 186.21172 2110.5258 L 165.43822 2110.5258 C 152.4201 2110.5258 141.37563 2106.025 132.30449 2097.023 C 123.23334 2088.0211 118.69784 2075.9034 118.69784 2060.6694 L 149.8581 2060.6694 C 149.8581 2068.148 151.45071 2073.4797 154.636 2076.665 C 157.82128 2079.8503 161.42199 2081.443 165.43822 2081.443 L 186.21172 2081.443 C 190.22795 2081.443 193.82865 2079.8503 197.01394 2076.665 C 200.19922 2073.4797 201.79184 2069.5328 201.79184 2064.824 C 201.79184 2060.1154 200.19922 2056.1685 197.01394 2052.9832 C 193.82865 2049.798 190.22795 2048.2053 186.21172 2048.2053 L 165.43822 2048.2053 C 152.4201 2048.2053 141.37563 2043.6698 132.30449 2034.5987 C 123.23334 2025.5275 118.69784 2014.8293 118.69784 2002.5036 C 118.69784 1990.178 123.23334 1979.4797 132.30449 1970.4085 C 141.37563 1961.3374 152.4201 1956.802 165.43822 1956.802 L 186.21172 1956.802 C 199.22984 1956.802 210.2743 1961.3374 219.34545 1970.4085 C 228.4166 1979.4797 232.9521 1991.5628 232.9521 2006.6583 L 201.79184 2006.6583 C 201.79184 1999.1798 200.19922 1993.848 197.01394 1990.6627 C 193.82865 1987.4774 190.22795 1985.8848 186.21172 1985.8848 L 165.43822 1985.8848 C 161.42199 1985.8848 157.82128 1987.4774 154.636 1990.6627 C 151.45071 1993.848 149.8581 1997.795 149.8581 2002.5036 C 149.8581 2007.2123 151.45071 2011.1592 154.636 2014.3445 C 157.82128 2017.5298 161.42199 2019.1224 165.43822 2019.1224 L 186.21172 2019.1224 C 199.22984 2019.1224 210.2743 2023.658 219.34545 2032.729 C 228.4166 2041.8002 232.9521 2052.4984 232.9521 2064.824 Z" fill="black"/>
      </g>
      <g id="Graphic_327">
        <path d="M 357.5931 2064.824 C 357.5931 2077.1498 353.0576 2087.848 343.98645 2096.9192 C 334.9153 2105.9903 323.87085 2110.5258 310.85272 2110.5258 L 290.07922 2110.5258 C 277.0611 2110.5258 266.01663 2105.9903 256.9455 2096.9192 C 247.87435 2087.848 243.33884 2077.1498 243.33884 2064.824 L 243.33884 2002.5036 C 243.33884 1990.178 247.87435 1979.4797 256.9455 1970.4085 C 266.01663 1961.3374 277.0611 1956.802 290.07922 1956.802 L 310.85272 1956.802 C 323.87085 1956.802 334.9153 1961.3374 343.98645 1970.4085 C 353.0576 1979.4797 357.5931 1990.178 357.5931 2002.5036 Z M 326.43285 2064.824 L 326.43285 2002.5036 C 326.43285 1997.795 324.84023 1993.848 321.65494 1990.6627 C 318.46965 1987.4774 314.86895 1985.8848 310.85272 1985.8848 L 290.07922 1985.8848 C 286.063 1985.8848 282.4623 1987.4774 279.277 1990.6627 C 276.0917 1993.848 274.4991 1997.795 274.4991 2002.5036 L 274.4991 2064.824 C 274.4991 2069.5328 276.0917 2073.4797 279.277 2076.665 C 282.4623 2079.8503 286.063 2081.443 290.07922 2081.443 L 310.85272 2081.443 C 314.86895 2081.443 318.46965 2079.8503 321.65494 2076.665 C 324.84023 2073.4797 326.43285 2069.5328 326.43285 2064.824 Z" fill="black"/>
      </g>
      <g id="Graphic_326">
        <path d="M 451.07385 2110.5258 L 451.07385 2064.824 C 451.07385 2060.1154 449.48123 2056.1685 446.29594 2052.9832 C 443.11066 2049.798 439.50995 2048.2053 435.4937 2048.2053 L 399.1401 2048.2053 L 399.1401 2110.5258 L 367.97985 2110.5258 L 367.97985 1956.802 L 435.4937 1956.802 C 448.65034 1956.802 459.72943 1961.3028 468.7313 1970.3047 C 477.7332 1979.3066 482.2341 1990.0394 482.2341 2002.5036 C 482.2341 2016.2142 477.2485 2026.6008 467.2772 2033.6638 C 477.2485 2040.7269 482.2341 2051.1135 482.2341 2064.824 L 482.2341 2110.5258 Z M 399.1401 2019.1224 L 435.4937 2019.1224 C 439.50995 2019.1224 443.11066 2017.5298 446.29594 2014.3445 C 449.48123 2011.1592 451.07385 2007.2123 451.07385 2002.5036 C 451.07385 1997.795 449.48123 1993.848 446.29594 1990.6627 C 443.11066 1987.4774 439.50995 1985.8848 435.4937 1985.8848 L 399.1401 1985.8848 Z" fill="black"/>
      </g>
      <g id="Graphic_325">
        <path d="M 568.79035 1997.6564 C 568.79035 2005.8736 565.7667 2013.0057 559.71925 2019.0532 C 553.6718 2025.1006 546.30885 2028.1242 537.6301 2028.1242 L 506.46985 2028.1242 L 506.46985 2008.7356 L 537.6301 2008.7356 C 540.3076 2008.7356 542.70806 2007.674 544.8316 2005.5504 C 546.9551 2003.4269 548.01685 2001.7188 548.01685 2000.4262 L 523.7811 2000.4262 C 515.10235 2000.4262 507.7394 1997.4026 501.69194 1991.3552 C 495.6445 1985.3077 492.62085 1978.1756 492.62085 1969.9584 L 492.62085 1956.1094 C 492.62085 1947.8923 495.6445 1940.7602 501.69194 1934.7127 C 507.7394 1928.6653 515.10235 1925.6416 523.7811 1925.6416 L 537.6301 1925.6416 C 546.30885 1925.6416 553.6718 1928.6653 559.71925 1934.7127 C 565.7667 1940.7602 568.79035 1947.8923 568.79035 1956.1094 Z M 548.01685 1981.0376 L 548.01685 1956.1094 C 548.01685 1952.9703 546.9551 1950.339 544.8316 1948.2155 C 542.70806 1946.092 540.3076 1945.0302 537.6301 1945.0302 L 523.7811 1945.0302 C 521.1036 1945.0302 518.70314 1946.092 516.5796 1948.2155 C 514.4561 1950.339 513.39435 1952.9703 513.39435 1956.1094 L 513.39435 1969.9584 C 513.39435 1973.0976 514.4561 1975.7289 516.5796 1977.8524 C 518.70314 1979.976 521.1036 1981.0376 523.7811 1981.0376 Z" fill="black"/>
      </g>
    </g>
  </g>
</svg>
