<svg xmlns="http://www.w3.org/2000/svg" width="364" height="349" viewBox="0 0 364 349" fill="none"><path d="M51.6445 218.229L312.389 218.228" stroke="#C5C7CC" stroke-width="0.379927" stroke-dasharray="3.04 3.04"></path><path d="M51.6445 171.465L312.389 171.465" stroke="#C5C7CC" stroke-width="0.379927" stroke-dasharray="3.04 3.04"></path><path d="M51.6445 271.784L312.389 271.784" stroke="#C5C7CC" stroke-width="0.379927" stroke-dasharray="3.04 3.04"></path><path d="M51.6445 151.602L312.389 151.602" stroke="#C5C7CC" stroke-width="0.379927" stroke-dasharray="3.04 3.04"></path><path d="M51.6445 10.0376L312.389 10.0376" stroke="#C5C7CC" stroke-width="0.379927" stroke-dasharray="3.04 3.04"></path><path d="M51.6445 36.2134L312.389 36.2133" stroke="#C5C7CC" stroke-width="0.379927" stroke-dasharray="3.04 3.04"></path><path d="M51.6445 60.6323L312.389 60.6323" stroke="#C5C7CC" stroke-width="0.379927" stroke-dasharray="3.04 3.04"></path><path d="M51.6445 289.185L312.389 289.185" stroke="#C5C7CC" stroke-width="0.379927" stroke-dasharray="3.04 3.04"></path><path d="M51.6445 252.671L312.389 252.671" stroke="#C5C7CC" stroke-width="0.379927" stroke-dasharray="3.04 3.04"></path><path d="M51.6445 313.604L312.389 313.603" stroke="#C5C7CC" stroke-width="0.379927" stroke-dasharray="3.04 3.04"></path><path d="M51.6445 339.466L312.389 339.466" stroke="#C5C7CC" stroke-width="0.379927" stroke-dasharray="3.04 3.04"></path><path d="M273.036 203.225H271.063C271.063 205.394 271.063 207.367 271.063 209.274C271.063 211.18 271.129 213.021 271.129 214.862H273.167C278.033 214.862 280.531 212.955 280.531 209.142C280.531 207.17 279.94 205.657 278.69 204.737C277.507 203.685 275.6 203.225 273.036 203.225ZM273.496 190.535H271.195C271.195 192.376 271.129 194.217 271.129 196.058C271.129 197.899 271.129 199.543 271.129 201.121H272.904C275.14 201.121 276.784 200.66 277.836 199.806C278.888 198.885 279.414 197.505 279.414 195.664C279.414 193.888 278.953 192.573 277.967 191.784C276.915 190.93 275.469 190.535 273.496 190.535ZM261.793 190.338V188.3H275.074C278.427 188.3 280.86 188.957 282.438 190.272C284.016 191.587 284.805 193.231 284.805 195.203C284.805 196.716 284.279 198.096 283.227 199.346C282.175 200.529 280.334 201.384 277.77 201.91C280.86 202.304 283.03 203.159 284.345 204.408C285.66 205.657 286.317 207.014 286.317 208.789C286.317 209.776 286.12 210.983 285.66 211.969C285.265 212.89 284.542 213.744 283.621 214.533C282.701 215.322 281.452 215.914 279.808 216.374C278.23 216.835 276.192 217.098 273.825 217.098H261.793V215.059L265.409 214.665C265.475 212.824 265.475 210.983 265.475 209.142C265.475 207.301 265.475 205.394 265.475 203.553V201.844C265.475 200.003 265.475 198.162 265.475 196.255C265.475 194.414 265.475 192.573 265.409 190.667L261.793 190.338Z" fill="#DFE0E2"></path><path d="M273.036 203.225H271.063C271.063 205.394 271.063 207.367 271.063 209.274C271.063 211.18 271.129 213.021 271.129 214.862H273.167C278.033 214.862 280.531 212.955 280.531 209.142C280.531 207.17 279.94 205.657 278.69 204.737C277.507 203.685 275.6 203.225 273.036 203.225ZM273.496 190.535H271.195C271.195 192.376 271.129 194.217 271.129 196.058C271.129 197.899 271.129 199.543 271.129 201.121H272.904C275.14 201.121 276.784 200.66 277.836 199.806C278.888 198.885 279.414 197.505 279.414 195.664C279.414 193.888 278.953 192.573 277.967 191.784C276.915 190.93 275.469 190.535 273.496 190.535ZM261.793 190.338V188.3H275.074C278.427 188.3 280.86 188.957 282.438 190.272C284.016 191.587 284.805 193.231 284.805 195.203C284.805 196.716 284.279 198.096 283.227 199.346C282.175 200.529 280.334 201.384 277.77 201.91C280.86 202.304 283.03 203.159 284.345 204.408C285.66 205.657 286.317 207.014 286.317 208.789C286.317 209.776 286.12 210.983 285.66 211.969C285.265 212.89 284.542 213.744 283.621 214.533C282.701 215.322 281.452 215.914 279.808 216.374C278.23 216.835 276.192 217.098 273.825 217.098H261.793V215.059L265.409 214.665C265.475 212.824 265.475 210.983 265.475 209.142C265.475 207.301 265.475 205.394 265.475 203.553V201.844C265.475 200.003 265.475 198.162 265.475 196.255C265.475 194.414 265.475 192.573 265.409 190.667L261.793 190.338Z" fill="#DFE0E2"></path><path d="M299.079 203.225H297.106C297.106 205.394 297.106 207.367 297.106 209.274C297.106 211.18 297.172 213.021 297.172 214.862H299.21C304.076 214.862 306.574 212.955 306.574 209.142C306.574 207.17 305.982 205.657 304.733 204.737C303.55 203.685 301.643 203.225 299.079 203.225ZM299.539 190.535H297.238C297.238 192.376 297.172 194.217 297.172 196.058C297.172 197.899 297.172 199.543 297.172 201.121H298.947C301.183 201.121 302.827 200.66 303.879 199.806C304.931 198.885 305.456 197.505 305.456 195.664C305.456 193.888 304.996 192.573 304.01 191.784C302.958 190.93 301.512 190.535 299.539 190.535ZM287.836 190.338V188.3H301.117C304.47 188.3 306.903 188.957 308.481 190.272C310.059 191.587 310.848 193.231 310.848 195.203C310.848 196.716 310.322 198.096 309.27 199.346C308.218 200.529 306.377 201.384 303.813 201.91C306.903 202.304 309.073 203.159 310.388 204.408C311.703 205.657 312.36 207.014 312.36 208.789C312.36 209.776 312.163 210.983 311.703 211.969C311.308 212.89 310.585 213.744 309.664 214.533C308.744 215.322 307.495 215.914 305.851 216.374C304.273 216.835 302.235 217.098 299.868 217.098H287.836V215.059L291.452 214.665C291.518 212.824 291.518 210.983 291.518 209.142C291.518 207.301 291.518 205.394 291.518 203.553V201.844C291.518 200.003 291.518 198.162 291.518 196.255C291.518 194.414 291.518 192.573 291.452 190.667L287.836 190.338Z" fill="#DFE0E2"></path><path d="M299.079 203.225H297.106C297.106 205.394 297.106 207.367 297.106 209.274C297.106 211.18 297.172 213.021 297.172 214.862H299.21C304.076 214.862 306.574 212.955 306.574 209.142C306.574 207.17 305.982 205.657 304.733 204.737C303.55 203.685 301.643 203.225 299.079 203.225ZM299.539 190.535H297.238C297.238 192.376 297.172 194.217 297.172 196.058C297.172 197.899 297.172 199.543 297.172 201.121H298.947C301.183 201.121 302.827 200.66 303.879 199.806C304.931 198.885 305.456 197.505 305.456 195.664C305.456 193.888 304.996 192.573 304.01 191.784C302.958 190.93 301.512 190.535 299.539 190.535ZM287.836 190.338V188.3H301.117C304.47 188.3 306.903 188.957 308.481 190.272C310.059 191.587 310.848 193.231 310.848 195.203C310.848 196.716 310.322 198.096 309.27 199.346C308.218 200.529 306.377 201.384 303.813 201.91C306.903 202.304 309.073 203.159 310.388 204.408C311.703 205.657 312.36 207.014 312.36 208.789C312.36 209.776 312.163 210.983 311.703 211.969C311.308 212.89 310.585 213.744 309.664 214.533C308.744 215.322 307.495 215.914 305.851 216.374C304.273 216.835 302.235 217.098 299.868 217.098H287.836V215.059L291.452 214.665C291.518 212.824 291.518 210.983 291.518 209.142C291.518 207.301 291.518 205.394 291.518 203.553V201.844C291.518 200.003 291.518 198.162 291.518 196.255C291.518 194.414 291.518 192.573 291.452 190.667L287.836 190.338Z" fill="#DFE0E2"></path><path d="M62.8523 203.225H60.8799C60.8799 205.394 60.8799 207.367 60.8799 209.274C60.8799 211.18 60.9456 213.021 60.9456 214.862H62.9838C67.8492 214.862 70.3476 212.955 70.3476 209.142C70.3476 207.17 69.7559 205.657 68.5067 204.737C67.3232 203.685 65.4165 203.225 62.8523 203.225ZM63.3126 190.535H61.0114C61.0114 192.376 60.9456 194.217 60.9456 196.058C60.9456 197.899 60.9456 199.543 60.9456 201.121H62.7208C64.9563 201.121 66.6 200.66 67.652 199.806C68.7039 198.885 69.2299 197.505 69.2299 195.664C69.2299 193.888 68.7697 192.573 67.7835 191.784C66.7315 190.93 65.285 190.535 63.3126 190.535ZM51.6094 190.338V188.3H64.8905C68.2437 188.3 70.6764 188.957 72.2544 190.272C73.8323 191.587 74.6213 193.231 74.6213 195.203C74.6213 196.716 74.0953 198.096 73.0433 199.346C71.9914 200.529 70.1504 201.384 67.5862 201.91C70.6764 202.304 72.8461 203.159 74.1611 204.408C75.476 205.657 76.1335 207.014 76.1335 208.789C76.1335 209.776 75.9363 210.983 75.476 211.969C75.0815 212.89 74.3583 213.744 73.4378 214.533C72.5173 215.322 71.2681 215.914 69.6244 216.374C68.0465 216.835 66.0083 217.098 63.6413 217.098H51.6094V215.059L55.2255 214.665C55.2913 212.824 55.2913 210.983 55.2913 209.142C55.2913 207.301 55.2913 205.394 55.2913 203.553V201.844C55.2913 200.003 55.2913 198.162 55.2913 196.255C55.2913 194.414 55.2913 192.573 55.2255 190.667L51.6094 190.338Z" fill="#DFE0E2"></path><path d="M62.8523 203.225H60.8799C60.8799 205.394 60.8799 207.367 60.8799 209.274C60.8799 211.18 60.9456 213.021 60.9456 214.862H62.9838C67.8492 214.862 70.3476 212.955 70.3476 209.142C70.3476 207.17 69.7559 205.657 68.5067 204.737C67.3232 203.685 65.4165 203.225 62.8523 203.225ZM63.3126 190.535H61.0114C61.0114 192.376 60.9456 194.217 60.9456 196.058C60.9456 197.899 60.9456 199.543 60.9456 201.121H62.7208C64.9563 201.121 66.6 200.66 67.652 199.806C68.7039 198.885 69.2299 197.505 69.2299 195.664C69.2299 193.888 68.7697 192.573 67.7835 191.784C66.7315 190.93 65.285 190.535 63.3126 190.535ZM51.6094 190.338V188.3H64.8905C68.2437 188.3 70.6764 188.957 72.2544 190.272C73.8323 191.587 74.6213 193.231 74.6213 195.203C74.6213 196.716 74.0953 198.096 73.0433 199.346C71.9914 200.529 70.1504 201.384 67.5862 201.91C70.6764 202.304 72.8461 203.159 74.1611 204.408C75.476 205.657 76.1335 207.014 76.1335 208.789C76.1335 209.776 75.9363 210.983 75.476 211.969C75.0815 212.89 74.3583 213.744 73.4378 214.533C72.5173 215.322 71.2681 215.914 69.6244 216.374C68.0465 216.835 66.0083 217.098 63.6413 217.098H51.6094V215.059L55.2255 214.665C55.2913 212.824 55.2913 210.983 55.2913 209.142C55.2913 207.301 55.2913 205.394 55.2913 203.553V201.844C55.2913 200.003 55.2913 198.162 55.2913 196.255C55.2913 194.414 55.2913 192.573 55.2255 190.667L51.6094 190.338Z" fill="#DFE0E2"></path><path d="M88.8953 203.225H86.9229C86.9229 205.394 86.9229 207.367 86.9229 209.274C86.9229 211.18 86.9886 213.021 86.9886 214.862H89.0268C93.8922 214.862 96.3906 212.955 96.3906 209.142C96.3906 207.17 95.7989 205.657 94.5497 204.737C93.3662 203.685 91.4595 203.225 88.8953 203.225ZM89.3555 190.535H87.0544C87.0544 192.376 86.9886 194.217 86.9886 196.058C86.9886 197.899 86.9886 199.543 86.9886 201.121H88.7638C90.9993 201.121 92.643 200.66 93.6949 199.806C94.7469 198.885 95.2729 197.505 95.2729 195.664C95.2729 193.888 94.8126 192.573 93.8264 191.784C92.7744 190.93 91.328 190.535 89.3555 190.535ZM77.6523 190.338V188.3H90.9335C94.2867 188.3 96.7194 188.957 98.2973 190.272C99.8753 191.587 100.664 193.231 100.664 195.203C100.664 196.716 100.138 198.096 99.0863 199.346C98.0343 200.529 96.1934 201.384 93.6292 201.91C96.7194 202.304 98.8891 203.159 100.204 204.408C101.519 205.657 102.176 207.014 102.176 208.789C102.176 209.776 101.979 210.983 101.519 211.969C101.125 212.89 100.401 213.744 99.4808 214.533C98.5603 215.322 97.3111 215.914 95.6674 216.374C94.0894 216.835 92.0512 217.098 89.6843 217.098H77.6523V215.059L81.2685 214.665C81.3343 212.824 81.3342 210.983 81.3342 209.142C81.3342 207.301 81.3342 205.394 81.3342 203.553V201.844C81.3342 200.003 81.3342 198.162 81.3342 196.255C81.3342 194.414 81.3343 192.573 81.2685 190.667L77.6523 190.338Z" fill="#DFE0E2"></path><path d="M88.8953 203.225H86.9229C86.9229 205.394 86.9229 207.367 86.9229 209.274C86.9229 211.18 86.9886 213.021 86.9886 214.862H89.0268C93.8922 214.862 96.3906 212.955 96.3906 209.142C96.3906 207.17 95.7989 205.657 94.5497 204.737C93.3662 203.685 91.4595 203.225 88.8953 203.225ZM89.3555 190.535H87.0544C87.0544 192.376 86.9886 194.217 86.9886 196.058C86.9886 197.899 86.9886 199.543 86.9886 201.121H88.7638C90.9993 201.121 92.643 200.66 93.6949 199.806C94.7469 198.885 95.2729 197.505 95.2729 195.664C95.2729 193.888 94.8126 192.573 93.8264 191.784C92.7744 190.93 91.328 190.535 89.3555 190.535ZM77.6523 190.338V188.3H90.9335C94.2867 188.3 96.7194 188.957 98.2973 190.272C99.8753 191.587 100.664 193.231 100.664 195.203C100.664 196.716 100.138 198.096 99.0863 199.346C98.0343 200.529 96.1934 201.384 93.6292 201.91C96.7194 202.304 98.8891 203.159 100.204 204.408C101.519 205.657 102.176 207.014 102.176 208.789C102.176 209.776 101.979 210.983 101.519 211.969C101.125 212.89 100.401 213.744 99.4808 214.533C98.5603 215.322 97.3111 215.914 95.6674 216.374C94.0894 216.835 92.0512 217.098 89.6843 217.098H77.6523V215.059L81.2685 214.665C81.3343 212.824 81.3342 210.983 81.3342 209.142C81.3342 207.301 81.3342 205.394 81.3342 203.553V201.844C81.3342 200.003 81.3342 198.162 81.3342 196.255C81.3342 194.414 81.3343 192.573 81.2685 190.667L77.6523 190.338Z" fill="#DFE0E2"></path><path d="M212.77 300.141V298.169C210.601 298.169 208.628 298.169 206.722 298.169C204.815 298.169 202.974 298.235 201.133 298.235V300.273C201.133 305.138 203.04 307.637 206.853 307.637C208.826 307.637 210.338 307.045 211.258 305.796C212.31 304.612 212.77 302.706 212.77 300.141ZM225.46 300.602V298.3C223.619 298.3 221.778 298.235 219.937 298.235C218.096 298.235 216.452 298.235 214.874 298.235V300.01C214.874 302.245 215.335 303.889 216.189 304.941C217.11 305.993 218.491 306.519 220.331 306.519C222.107 306.519 223.422 306.059 224.211 305.073C225.065 304.021 225.46 302.574 225.46 300.602ZM225.657 288.898H227.695V302.18C227.695 305.533 227.038 307.965 225.723 309.543C224.408 311.121 222.764 311.91 220.792 311.91C219.28 311.91 217.899 311.384 216.65 310.332C215.466 309.28 214.611 307.439 214.085 304.875C213.691 307.965 212.836 310.135 211.587 311.45C210.338 312.765 208.981 313.423 207.206 313.423C206.219 313.423 205.012 313.225 204.026 312.765C203.105 312.371 202.251 311.647 201.462 310.727C200.673 309.806 200.081 308.557 199.621 306.913C199.161 305.336 198.898 303.297 198.898 300.93V288.898H200.936L201.33 292.515C203.171 292.58 205.012 292.58 206.853 292.58C208.694 292.58 210.601 292.58 212.442 292.58H214.151C215.992 292.58 217.833 292.58 219.74 292.58C221.581 292.58 223.422 292.58 225.328 292.515L225.657 288.898Z" fill="#DFE0E2"></path><path d="M212.77 300.141V298.169C210.601 298.169 208.628 298.169 206.722 298.169C204.815 298.169 202.974 298.235 201.133 298.235V300.273C201.133 305.138 203.04 307.637 206.853 307.637C208.826 307.637 210.338 307.045 211.258 305.796C212.31 304.612 212.77 302.706 212.77 300.141ZM225.46 300.602V298.3C223.619 298.3 221.778 298.235 219.937 298.235C218.096 298.235 216.452 298.235 214.874 298.235V300.01C214.874 302.245 215.335 303.889 216.189 304.941C217.11 305.993 218.491 306.519 220.331 306.519C222.107 306.519 223.422 306.059 224.211 305.073C225.065 304.021 225.46 302.574 225.46 300.602ZM225.657 288.898H227.695V302.18C227.695 305.533 227.038 307.965 225.723 309.543C224.408 311.121 222.764 311.91 220.792 311.91C219.28 311.91 217.899 311.384 216.65 310.332C215.466 309.28 214.611 307.439 214.085 304.875C213.691 307.965 212.836 310.135 211.587 311.45C210.338 312.765 208.981 313.423 207.206 313.423C206.219 313.423 205.012 313.225 204.026 312.765C203.105 312.371 202.251 311.647 201.462 310.727C200.673 309.806 200.081 308.557 199.621 306.913C199.161 305.336 198.898 303.297 198.898 300.93V288.898H200.936L201.33 292.515C203.171 292.58 205.012 292.58 206.853 292.58C208.694 292.58 210.601 292.58 212.442 292.58H214.151C215.992 292.58 217.833 292.58 219.74 292.58C221.581 292.58 223.422 292.58 225.328 292.515L225.657 288.898Z" fill="#DFE0E2"></path><path d="M212.77 326.185V324.213C210.601 324.213 208.628 324.213 206.722 324.213C204.815 324.213 202.974 324.279 201.133 324.279V326.317C201.133 331.182 203.04 333.681 206.853 333.681C208.826 333.681 210.338 333.089 211.258 331.84C212.31 330.656 212.77 328.75 212.77 326.185ZM225.46 326.646V324.344C223.619 324.344 221.778 324.279 219.937 324.279C218.096 324.279 216.452 324.279 214.874 324.279V326.054C214.874 328.289 215.335 329.933 216.189 330.985C217.11 332.037 218.491 332.563 220.331 332.563C222.107 332.563 223.422 332.103 224.211 331.116C225.065 330.064 225.46 328.618 225.46 326.646ZM225.657 314.942H227.695V328.224C227.695 331.577 227.038 334.009 225.723 335.587C224.408 337.165 222.764 337.954 220.792 337.954C219.28 337.954 217.899 337.428 216.65 336.376C215.466 335.324 214.611 333.483 214.085 330.919C213.691 334.009 212.836 336.179 211.587 337.494C210.338 338.809 208.981 339.467 207.206 339.467C206.219 339.467 205.012 339.269 204.026 338.809C203.105 338.415 202.251 337.691 201.462 336.771C200.673 335.85 200.081 334.601 199.621 332.957C199.161 331.379 198.898 329.341 198.898 326.974V314.942H200.936L201.33 318.559C203.171 318.624 205.012 318.624 206.853 318.624C208.694 318.624 210.601 318.624 212.442 318.624H214.151C215.992 318.624 217.833 318.624 219.74 318.624C221.581 318.624 223.422 318.624 225.328 318.559L225.657 314.942Z" fill="#DFE0E2"></path><path d="M212.77 326.185V324.213C210.601 324.213 208.628 324.213 206.722 324.213C204.815 324.213 202.974 324.279 201.133 324.279V326.317C201.133 331.182 203.04 333.681 206.853 333.681C208.826 333.681 210.338 333.089 211.258 331.84C212.31 330.656 212.77 328.75 212.77 326.185ZM225.46 326.646V324.344C223.619 324.344 221.778 324.279 219.937 324.279C218.096 324.279 216.452 324.279 214.874 324.279V326.054C214.874 328.289 215.335 329.933 216.189 330.985C217.11 332.037 218.491 332.563 220.331 332.563C222.107 332.563 223.422 332.103 224.211 331.116C225.065 330.064 225.46 328.618 225.46 326.646ZM225.657 314.942H227.695V328.224C227.695 331.577 227.038 334.009 225.723 335.587C224.408 337.165 222.764 337.954 220.792 337.954C219.28 337.954 217.899 337.428 216.65 336.376C215.466 335.324 214.611 333.483 214.085 330.919C213.691 334.009 212.836 336.179 211.587 337.494C210.338 338.809 208.981 339.467 207.206 339.467C206.219 339.467 205.012 339.269 204.026 338.809C203.105 338.415 202.251 337.691 201.462 336.771C200.673 335.85 200.081 334.601 199.621 332.957C199.161 331.379 198.898 329.341 198.898 326.974V314.942H200.936L201.33 318.559C203.171 318.624 205.012 318.624 206.853 318.624C208.694 318.624 210.601 318.624 212.442 318.624H214.151C215.992 318.624 217.833 318.624 219.74 318.624C221.581 318.624 223.422 318.624 225.328 318.559L225.657 314.942Z" fill="#DFE0E2"></path><path d="M212.77 21.2806V19.3081C210.601 19.3081 208.628 19.3081 206.722 19.3081C204.815 19.3081 202.974 19.3739 201.133 19.3739V21.4121C201.133 26.2774 203.04 28.7759 206.853 28.7759C208.826 28.7759 210.338 28.1841 211.258 26.9349C212.31 25.7514 212.77 23.8447 212.77 21.2806ZM225.46 21.7408V19.4396C223.619 19.4396 221.778 19.3739 219.937 19.3739C218.096 19.3739 216.452 19.3739 214.874 19.3739V21.1491C214.874 23.3845 215.335 25.0282 216.189 26.0802C217.11 27.1322 218.491 27.6582 220.331 27.6582C222.107 27.6582 223.422 27.1979 224.211 26.2117C225.065 25.1597 225.46 23.7133 225.46 21.7408ZM225.657 10.0376H227.695V23.3188C227.695 26.6719 227.038 29.1046 225.723 30.6826C224.408 32.2605 222.764 33.0495 220.792 33.0495C219.28 33.0495 217.899 32.5235 216.65 31.4716C215.466 30.4196 214.611 28.5786 214.085 26.0144C213.691 29.1046 212.836 31.2743 211.587 32.5893C210.338 33.9043 208.981 34.5617 207.206 34.5617C206.219 34.5617 205.012 34.3645 204.026 33.9043C203.105 33.5098 202.251 32.7865 201.462 31.866C200.673 30.9456 200.081 29.6963 199.621 28.0526C199.161 26.4747 198.898 24.4365 198.898 22.0695V10.0376H200.936L201.33 13.6538C203.171 13.7195 205.012 13.7195 206.853 13.7195C208.694 13.7195 210.601 13.7195 212.442 13.7195H214.151C215.992 13.7195 217.833 13.7195 219.74 13.7195C221.581 13.7195 223.422 13.7195 225.328 13.6538L225.657 10.0376Z" fill="#DFE0E2"></path><path d="M212.77 21.2806V19.3081C210.601 19.3081 208.628 19.3081 206.722 19.3081C204.815 19.3081 202.974 19.3739 201.133 19.3739V21.4121C201.133 26.2774 203.04 28.7759 206.853 28.7759C208.826 28.7759 210.338 28.1841 211.258 26.9349C212.31 25.7514 212.77 23.8447 212.77 21.2806ZM225.46 21.7408V19.4396C223.619 19.4396 221.778 19.3739 219.937 19.3739C218.096 19.3739 216.452 19.3739 214.874 19.3739V21.1491C214.874 23.3845 215.335 25.0282 216.189 26.0802C217.11 27.1322 218.491 27.6582 220.331 27.6582C222.107 27.6582 223.422 27.1979 224.211 26.2117C225.065 25.1597 225.46 23.7133 225.46 21.7408ZM225.657 10.0376H227.695V23.3188C227.695 26.6719 227.038 29.1046 225.723 30.6826C224.408 32.2605 222.764 33.0495 220.792 33.0495C219.28 33.0495 217.899 32.5235 216.65 31.4716C215.466 30.4196 214.611 28.5786 214.085 26.0144C213.691 29.1046 212.836 31.2743 211.587 32.5893C210.338 33.9043 208.981 34.5617 207.206 34.5617C206.219 34.5617 205.012 34.3645 204.026 33.9043C203.105 33.5098 202.251 32.7865 201.462 31.866C200.673 30.9456 200.081 29.6963 199.621 28.0526C199.161 26.4747 198.898 24.4365 198.898 22.0695V10.0376H200.936L201.33 13.6538C203.171 13.7195 205.012 13.7195 206.853 13.7195C208.694 13.7195 210.601 13.7195 212.442 13.7195H214.151C215.992 13.7195 217.833 13.7195 219.74 13.7195C221.581 13.7195 223.422 13.7195 225.328 13.6538L225.657 10.0376Z" fill="#DFE0E2"></path><path d="M212.77 47.3245V45.352C210.601 45.352 208.628 45.352 206.722 45.352C204.815 45.352 202.974 45.4178 201.133 45.4178V47.456C201.133 52.3214 203.04 54.8198 206.853 54.8198C208.826 54.8198 210.338 54.2281 211.258 52.9789C212.31 51.7954 212.77 49.8887 212.77 47.3245ZM225.46 47.7847V45.4836C223.619 45.4836 221.778 45.4178 219.937 45.4178C218.096 45.4178 216.452 45.4178 214.874 45.4178V47.193C214.874 49.4285 215.335 51.0722 216.189 52.1241C217.11 53.1761 218.491 53.7021 220.331 53.7021C222.107 53.7021 223.422 53.2418 224.211 52.2556C225.065 51.2036 225.46 49.7572 225.46 47.7847ZM225.657 36.0815H227.695V49.3627C227.695 52.7159 227.038 55.1486 225.723 56.7265C224.408 58.3045 222.764 59.0935 220.792 59.0935C219.28 59.0935 217.899 58.5675 216.65 57.5155C215.466 56.4635 214.611 54.6226 214.085 52.0584C213.691 55.1486 212.836 57.3183 211.587 58.6332C210.338 59.9482 208.981 60.6057 207.206 60.6057C206.219 60.6057 205.012 60.4084 204.026 59.9482C203.105 59.5537 202.251 58.8305 201.462 57.91C200.673 56.9895 200.081 55.7403 199.621 54.0966C199.161 52.5186 198.898 50.4804 198.898 48.1135V36.0815H200.936L201.33 39.6977C203.171 39.7635 205.012 39.7634 206.853 39.7634C208.694 39.7634 210.601 39.7634 212.442 39.7634H214.151C215.992 39.7634 217.833 39.7634 219.74 39.7634C221.581 39.7634 223.422 39.7635 225.328 39.6977L225.657 36.0815Z" fill="#DFE0E2"></path><path d="M212.77 47.3245V45.352C210.601 45.352 208.628 45.352 206.722 45.352C204.815 45.352 202.974 45.4178 201.133 45.4178V47.456C201.133 52.3214 203.04 54.8198 206.853 54.8198C208.826 54.8198 210.338 54.2281 211.258 52.9789C212.31 51.7954 212.77 49.8887 212.77 47.3245ZM225.46 47.7847V45.4836C223.619 45.4836 221.778 45.4178 219.937 45.4178C218.096 45.4178 216.452 45.4178 214.874 45.4178V47.193C214.874 49.4285 215.335 51.0722 216.189 52.1241C217.11 53.1761 218.491 53.7021 220.331 53.7021C222.107 53.7021 223.422 53.2418 224.211 52.2556C225.065 51.2036 225.46 49.7572 225.46 47.7847ZM225.657 36.0815H227.695V49.3627C227.695 52.7159 227.038 55.1486 225.723 56.7265C224.408 58.3045 222.764 59.0935 220.792 59.0935C219.28 59.0935 217.899 58.5675 216.65 57.5155C215.466 56.4635 214.611 54.6226 214.085 52.0584C213.691 55.1486 212.836 57.3183 211.587 58.6332C210.338 59.9482 208.981 60.6057 207.206 60.6057C206.219 60.6057 205.012 60.4084 204.026 59.9482C203.105 59.5537 202.251 58.8305 201.462 57.91C200.673 56.9895 200.081 55.7403 199.621 54.0966C199.161 52.5186 198.898 50.4804 198.898 48.1135V36.0815H200.936L201.33 39.6977C203.171 39.7635 205.012 39.7634 206.853 39.7634C208.694 39.7634 210.601 39.7634 212.442 39.7634H214.151C215.992 39.7634 217.833 39.7634 219.74 39.7634C221.581 39.7634 223.422 39.7635 225.328 39.6977L225.657 36.0815Z" fill="#DFE0E2"></path><path d="M102.709 10.0376L102.709 339.467" stroke="#C5C7CC" stroke-width="0.379927" stroke-dasharray="3.04 3.04"></path><path d="M312.389 10.0376L312.389 339.467" stroke="#C5C7CC" stroke-width="0.379927" stroke-dasharray="3.04 3.04"></path><path d="M77.125 10.0376L77.125 339.467" stroke="#C5C7CC" stroke-width="0.379927" stroke-dasharray="3.04 3.04"></path><path d="M287.273 10.0376L287.273 339.467" stroke="#C5C7CC" stroke-width="0.379927" stroke-dasharray="3.04 3.04"></path><path d="M51.6445 10.0376L51.6446 339.467" stroke="#C5C7CC" stroke-width="0.379927" stroke-dasharray="3.04 3.04"></path><path d="M261.324 10.0376L261.324 339.467" stroke="#C5C7CC" stroke-width="0.379927" stroke-dasharray="3.04 3.04"></path><path d="M145.099 73.5476C148.379 73.5476 150.986 70.947 150.986 67.6752C150.986 64.4034 148.379 61.8027 145.099 61.8027C141.819 61.8027 139.211 64.4034 139.211 67.6752C139.295 70.8631 141.903 73.5476 145.099 73.5476Z" fill="#FCBC32"></path><path d="M147.286 100.141C152.332 98.967 155.444 93.9334 154.267 88.8999C153.089 83.8664 148.043 80.7624 142.996 81.9369C137.95 83.1114 134.838 88.1449 136.015 93.1784C137.193 98.212 142.239 101.4 147.286 100.141Z" fill="#FCBC32"></path><path d="M147.286 147.037C152.332 145.863 155.444 140.829 154.267 135.796C153.089 130.762 148.043 127.658 142.996 128.833C137.95 130.007 134.838 135.041 136.015 140.074C137.193 145.108 142.239 148.212 147.286 147.037Z" fill="#FCBC32"></path><path d="M150.986 114.487C150.986 111.215 148.379 108.614 145.099 108.614C141.819 108.614 139.211 111.215 139.211 114.487C139.211 117.759 141.819 120.359 145.099 120.359C148.379 120.359 150.986 117.759 150.986 114.487Z" fill="#FCBC32"></path><path d="M181.181 113.816C175.966 113.816 171.761 118.01 171.761 123.212C171.761 128.413 175.966 132.608 181.181 132.608C186.395 132.608 190.601 128.413 190.601 123.212C190.517 118.01 186.311 113.816 181.181 113.816Z" fill="#FCBC32"></path><path d="M181.181 140.661C177.9 140.661 175.293 143.262 175.293 146.534C175.293 149.806 177.9 152.406 181.181 152.406C184.461 152.406 187.068 149.806 187.068 146.534C187.068 143.346 184.377 140.661 181.181 140.661Z" fill="#FCBC32"></path><path d="M181.181 105.595C184.461 105.595 187.068 102.994 187.068 99.7222C187.068 96.4504 184.461 93.8497 181.181 93.8497C177.9 93.8497 175.293 96.4504 175.293 99.7222C175.293 102.994 177.9 105.595 181.181 105.595Z" fill="#FCBC32"></path><path d="M182.106 82.1047C185.302 81.6013 187.489 78.5812 186.984 75.3933C186.479 72.2054 183.452 70.0242 180.255 70.5276C177.059 71.0309 174.873 74.0511 175.377 77.239C175.882 80.4269 178.91 82.608 182.106 82.1047Z" fill="#FCBC32"></path><path d="M223.823 97.7087C227.523 94.0175 227.523 88.145 223.823 84.4538C220.122 80.7625 214.235 80.7625 210.534 84.4538C206.833 88.145 206.833 94.0175 210.534 97.7087C214.235 101.316 220.122 101.316 223.823 97.7087Z" fill="#FCBC32"></path><path d="M217.178 73.5476C220.459 73.5476 223.066 70.947 223.066 67.6752C223.066 64.4034 220.459 61.8027 217.178 61.8027C213.898 61.8027 211.291 64.4034 211.291 67.6752C211.291 70.8631 213.982 73.5476 217.178 73.5476Z" fill="#FCBC32"></path><path d="M217.178 108.614C213.898 108.614 211.291 111.215 211.291 114.487C211.291 117.759 213.898 120.359 217.178 120.359C220.459 120.359 223.066 117.759 223.066 114.487C223.066 111.215 220.459 108.614 217.178 108.614Z" fill="#FCBC32"></path><path d="M217.178 132.021C213.898 132.021 211.291 134.621 211.291 137.893C211.291 141.165 213.898 143.766 217.178 143.766C220.459 143.766 223.066 141.165 223.066 137.893C223.066 134.621 220.459 132.021 217.178 132.021Z" fill="#FCBC32"></path><path d="M249.908 208.184C248.593 208.184 247.343 208.053 246.226 207.724C245.108 207.461 244.056 207.001 242.938 206.409L242.872 201.346H245.765L246.554 205.357C247.606 205.817 248.724 206.015 249.973 206.015C251.42 206.015 252.537 205.752 253.261 205.226C253.984 204.7 254.378 203.976 254.378 203.056C254.378 202.267 254.115 201.609 253.524 201.083C252.932 200.557 251.946 200.097 250.565 199.637L248.395 198.914C246.752 198.388 245.502 197.599 244.516 196.613C243.596 195.626 243.135 194.311 243.135 192.799C243.135 191.616 243.464 190.498 244.122 189.512C244.779 188.525 245.7 187.671 246.883 187.145C248.132 186.553 249.644 186.224 251.42 186.224C252.669 186.224 253.787 186.356 254.839 186.685C255.891 186.947 256.877 187.408 257.929 187.999L257.732 192.536H254.839L254.05 188.92C253.261 188.591 252.34 188.394 251.354 188.394C250.17 188.394 249.316 188.657 248.658 189.117C248.001 189.577 247.672 190.301 247.672 191.09C247.672 191.879 247.935 192.536 248.461 192.996C248.987 193.457 250.039 193.917 251.485 194.443L253.195 194.969C255.299 195.692 256.811 196.612 257.732 197.664C258.652 198.716 259.047 200.031 259.047 201.544C259.047 203.516 258.258 205.094 256.68 206.343C255.102 207.527 252.866 208.184 249.908 208.184Z" fill="#171A1F"></path><path d="M235.311 208.184C233.602 208.184 232.221 207.724 231.235 206.869C230.249 206.015 229.789 204.634 229.789 202.727C229.789 202.07 229.789 201.412 229.789 200.886C229.789 200.295 229.854 199.571 229.854 198.717V189.446H226.633V187.211L230.183 186.75L231.827 180.767H235.377L235.18 186.75H240.374V189.38H235.114V202.201C235.114 203.253 235.311 204.042 235.706 204.568C236.166 205.028 236.692 205.291 237.415 205.291C238.204 205.291 239.059 204.897 240.045 204.174L241.097 205.291C240.571 206.212 239.782 206.869 238.862 207.395C237.876 207.921 236.692 208.184 235.311 208.184Z" fill="#171A1F"></path><path d="M201.188 207.527V205.752L204.081 205.16C204.081 204.108 204.147 202.924 204.147 201.675C204.147 200.426 204.147 199.308 204.147 198.388V179.781L200.991 179.321V177.677L208.749 175.705L209.407 176.099L209.209 182.214V189.972C211.445 187.408 213.943 186.093 216.639 186.093C218.546 186.093 219.992 186.684 221.044 187.934C222.096 189.183 222.622 191.155 222.622 193.851V198.388C222.622 199.374 222.622 200.492 222.622 201.741C222.622 202.99 222.622 204.174 222.688 205.226L225.318 205.752V207.527H214.601V205.752L217.362 205.16C217.362 204.108 217.428 202.924 217.428 201.741C217.428 200.492 217.428 199.374 217.428 198.388V194.246C217.428 192.536 217.165 191.353 216.705 190.695C216.244 190.038 215.521 189.709 214.403 189.709C212.76 189.709 211.116 190.564 209.341 192.207V198.388C209.341 199.374 209.341 200.426 209.341 201.675C209.341 202.924 209.341 204.108 209.407 205.226L211.971 205.752V207.527H201.188Z" fill="#171A1F"></path><path d="M187.578 198.322C188.827 198.322 189.748 197.862 190.34 196.876C190.997 195.889 191.326 194.64 191.326 193.062C191.326 191.55 190.997 190.301 190.34 189.446C189.748 188.526 188.827 188.065 187.71 188.065C186.592 188.065 185.671 188.526 184.948 189.512C184.291 190.432 183.962 191.682 183.962 193.259C183.962 194.837 184.291 196.087 184.882 197.007C185.54 197.862 186.46 198.322 187.578 198.322ZM182.121 211.603C182.121 212.918 182.581 213.904 183.567 214.496C184.554 215.088 185.934 215.417 187.775 215.417C190.077 215.417 191.786 215.022 192.969 214.299C194.153 213.576 194.745 212.655 194.745 211.538C194.745 210.749 194.482 210.025 193.89 209.434C193.364 208.842 192.378 208.579 190.997 208.579H186.197C185.145 208.579 184.159 208.513 183.304 208.316C182.515 209.368 182.121 210.486 182.121 211.603ZM187.71 200.229C186.395 200.229 185.211 200.097 184.093 199.769C183.567 200.492 183.239 201.347 183.239 202.135C183.239 202.661 183.436 203.122 183.765 203.45C184.159 203.779 184.817 203.911 185.737 203.911H191.194C194.021 203.911 196.06 204.437 197.243 205.489C198.492 206.541 199.084 207.987 199.084 209.828C199.084 211.209 198.624 212.458 197.769 213.641C196.914 214.825 195.599 215.811 193.89 216.534C192.18 217.258 190.011 217.652 187.447 217.652C185.211 217.652 183.436 217.389 182.055 216.929C180.74 216.469 179.754 215.811 179.162 215.088C178.571 214.299 178.308 213.444 178.308 212.458C178.308 211.537 178.636 210.683 179.228 209.894C179.82 209.171 180.806 208.447 182.252 207.79C181.332 207.461 180.675 207.001 180.28 206.475C179.82 205.883 179.623 205.16 179.623 204.371C179.623 203.516 179.886 202.727 180.346 201.872C180.872 201.018 181.661 200.097 182.713 199.111C180.412 197.928 179.294 195.955 179.294 193.128C179.294 190.958 180.017 189.249 181.529 188C183.041 186.685 185.08 186.027 187.71 186.027C190.34 186.027 192.378 186.619 193.89 187.868L198.821 186.027L199.479 186.487V189.512H195.271C195.862 190.498 196.191 191.682 196.191 193.128C196.191 195.232 195.468 196.941 193.956 198.256C192.443 199.637 190.34 200.229 187.71 200.229Z" fill="#171A1F"></path><path d="M165.224 207.527V205.751L168.117 205.16C168.117 204.108 168.182 202.924 168.182 201.675C168.182 200.426 168.182 199.308 168.182 198.388V196.349C168.182 195.166 168.182 194.18 168.117 193.391C168.117 192.602 168.117 191.747 168.051 190.892L164.961 190.498V188.854L172.785 186.093L173.508 186.553L173.376 192.667V198.388C173.376 199.308 173.376 200.426 173.376 201.675C173.376 202.924 173.376 204.108 173.442 205.225L176.072 205.751V207.527H165.224ZM170.681 182.082C169.76 182.082 168.971 181.819 168.314 181.227C167.656 180.636 167.328 179.912 167.328 178.992C167.328 178.071 167.656 177.282 168.314 176.756C168.971 176.165 169.76 175.902 170.681 175.902C171.601 175.902 172.39 176.165 172.982 176.756C173.639 177.348 173.968 178.071 173.968 178.992C173.968 179.912 173.639 180.636 172.982 181.227C172.39 181.819 171.601 182.082 170.681 182.082Z" fill="#171A1F"></path><path d="M153.323 188.197C152.6 188.197 151.943 188.46 151.219 188.92C150.562 189.38 149.97 190.103 149.51 191.09C149.05 192.076 148.787 193.456 148.655 195.232H154.638C155.69 195.232 156.348 195.034 156.742 194.574C157.071 194.114 157.268 193.522 157.268 192.733C157.268 191.418 156.874 190.301 156.15 189.446C155.296 188.657 154.375 188.197 153.323 188.197ZM153.323 208.184C151.285 208.184 149.51 207.724 147.998 206.869C146.485 206.014 145.236 204.765 144.382 203.122C143.527 201.478 143.067 199.505 143.067 197.27C143.067 194.969 143.527 192.996 144.513 191.287C145.499 189.577 146.814 188.328 148.392 187.473C150.036 186.553 151.745 186.158 153.586 186.158C155.296 186.158 156.808 186.553 158.057 187.276C159.306 187.999 160.293 188.986 161.016 190.301C161.739 191.616 162.134 193.128 162.134 194.903C162.134 195.823 162.068 196.612 161.871 197.27H148.589C148.721 199.768 149.378 201.609 150.562 202.859C151.745 204.108 153.323 204.699 155.098 204.699C156.348 204.699 157.465 204.436 158.32 203.976C159.241 203.45 160.03 202.793 160.753 202.004L162.002 203.122C161.147 204.699 160.03 205.949 158.517 206.869C157.071 207.724 155.361 208.184 153.323 208.184Z" fill="#171A1F"></path><path d="M134.979 180.767V178.729H144.513V180.767L140.962 181.359L133.467 207.724H130.443L123.605 186.553L117.03 207.724H114.006L106.313 181.162L103.157 180.833V178.795H115.781V180.833L112.165 181.293L117.096 200.097L123.079 181.293L119.331 180.833V178.795H131.692V180.833L127.616 181.293L133.401 200.294L138.661 181.293L134.979 180.767Z" fill="#171A1F"></path><path d="M251.237 252.498C249.922 252.498 248.673 252.366 247.555 252.037C246.438 251.774 245.386 251.314 244.268 250.722L244.202 245.66H247.095L247.884 249.67C248.936 250.131 250.054 250.328 251.303 250.328C252.75 250.328 253.867 250.065 254.591 249.539C255.314 249.013 255.708 248.29 255.708 247.369C255.708 246.58 255.445 245.923 254.854 245.397C254.262 244.871 253.276 244.411 251.895 243.95L249.725 243.227C248.081 242.701 246.832 241.912 245.846 240.926C244.926 239.94 244.465 238.625 244.465 237.113C244.465 235.863 244.794 234.811 245.452 233.825C246.109 232.839 247.029 231.984 248.213 231.458C249.462 230.866 250.974 230.538 252.75 230.538C253.999 230.538 255.117 230.669 256.169 230.998C257.221 231.261 258.207 231.721 259.259 232.313L259.061 236.85H256.169L255.38 233.233C254.591 232.905 253.67 232.707 252.684 232.707C251.5 232.707 250.646 232.97 249.988 233.431C249.331 233.891 249.002 234.614 249.002 235.403C249.002 236.192 249.265 236.85 249.791 237.31C250.317 237.77 251.369 238.23 252.815 238.756L254.525 239.282C256.629 240.005 258.141 240.926 259.061 241.978C259.982 243.03 260.376 244.345 260.376 245.857C260.376 247.83 259.587 249.407 258.009 250.657C256.366 251.906 254.13 252.498 251.237 252.498Z" fill="#171A1F"></path><path d="M231.973 232.571C231.25 232.571 230.592 232.834 229.869 233.294C229.212 233.754 228.62 234.477 228.16 235.464C227.7 236.45 227.437 237.831 227.305 239.606H233.288C234.34 239.606 234.998 239.409 235.392 238.948C235.721 238.488 235.918 237.896 235.918 237.107C235.918 235.792 235.524 234.675 234.8 233.82C233.946 232.965 233.025 232.571 231.973 232.571ZM231.973 252.492C229.935 252.492 228.16 252.032 226.648 251.178C225.135 250.323 223.886 249.074 223.031 247.43C222.177 245.786 221.716 243.814 221.716 241.578C221.716 239.277 222.177 237.305 223.163 235.595C224.149 233.886 225.464 232.636 227.042 231.782C228.686 230.861 230.395 230.467 232.236 230.467C233.946 230.467 235.458 230.796 236.707 231.585C237.956 232.308 238.942 233.294 239.666 234.609C240.389 235.924 240.783 237.436 240.783 239.211C240.783 240.132 240.718 240.921 240.52 241.578H227.239C227.371 244.077 228.028 245.918 229.212 247.167C230.461 248.416 231.973 249.008 233.748 249.008C234.998 249.008 236.115 248.745 236.97 248.285C237.89 247.759 238.679 247.101 239.403 246.312L240.652 247.43C239.797 249.008 238.68 250.257 237.167 251.178C235.721 252.098 234.011 252.492 231.973 252.492Z" fill="#171A1F"></path><path d="M209.553 252.487C208.238 252.487 206.989 252.356 205.871 252.027C204.753 251.764 203.701 251.304 202.584 250.712L202.518 245.649H205.411L206.2 249.66C207.252 250.12 208.369 250.317 209.619 250.317C211.065 250.317 212.183 250.054 212.906 249.528C213.629 249.002 214.024 248.279 214.024 247.359C214.024 246.57 213.761 245.912 213.169 245.386C212.577 244.86 211.591 244.4 210.21 243.94L208.041 243.217C206.397 242.691 205.148 241.902 204.161 240.915C203.241 239.929 202.781 238.614 202.781 237.102C202.781 235.853 203.109 234.801 203.767 233.815C204.424 232.828 205.345 231.974 206.528 231.448C207.778 230.856 209.29 230.527 211.065 230.527C212.314 230.527 213.432 230.659 214.484 230.987C215.536 231.25 216.522 231.711 217.574 232.302L217.377 236.839H214.418L213.629 233.223C212.84 232.894 211.92 232.697 210.934 232.697C209.75 232.697 208.895 232.96 208.238 233.42C207.58 233.88 207.252 234.604 207.252 235.393C207.252 236.182 207.515 236.839 208.041 237.299C208.567 237.759 209.619 238.22 211.065 238.746L212.774 239.272C214.878 239.995 216.391 240.915 217.311 241.967C218.232 243.019 218.626 244.334 218.626 245.847C218.626 247.819 217.837 249.397 216.259 250.646C214.747 251.895 212.512 252.487 209.553 252.487Z" fill="#171A1F"></path><path d="M196.272 252.371C195.088 252.371 194.168 252.108 193.445 251.516C192.721 250.924 192.261 250.135 191.998 249.149C190.946 250.267 189.96 251.122 189.105 251.648C188.25 252.174 187.133 252.502 185.686 252.502C184.043 252.502 182.662 252.042 181.544 251.122C180.426 250.135 179.9 248.82 179.9 247.045C179.9 246.125 180.098 245.27 180.558 244.481C181.018 243.692 181.741 242.903 182.859 242.246C183.977 241.522 185.62 240.865 187.659 240.207C188.25 240.01 188.908 239.813 189.631 239.616C190.354 239.418 191.078 239.221 191.867 239.024V237.84C191.867 235.802 191.604 234.422 191.012 233.764C190.486 233.041 189.5 232.646 188.053 232.646C187.79 232.646 187.527 232.646 187.198 232.712C186.935 232.712 186.607 232.778 186.278 232.844L185.752 235.21C185.62 236.262 185.358 237.051 184.832 237.512C184.371 237.972 183.714 238.235 182.991 238.235C181.61 238.235 180.821 237.577 180.558 236.262C180.821 234.553 181.741 233.107 183.319 232.12C184.963 231.068 187.067 230.542 189.697 230.542C192.195 230.542 194.036 231.134 195.22 232.383C196.403 233.567 196.929 235.605 196.929 238.432V247.9C196.929 249.215 197.324 249.872 198.178 249.872C198.704 249.872 199.23 249.544 199.691 248.886L200.677 249.792C200.151 250.778 199.559 251.45 198.836 251.845C198.178 252.174 197.324 252.371 196.272 252.371ZM184.963 246.059C184.963 247.177 185.226 248.031 185.818 248.557C186.409 249.018 187.133 249.281 188.053 249.281C188.513 249.281 189.039 249.149 189.5 248.952C189.96 248.689 190.749 248.229 191.801 247.505V240.668C191.209 240.865 190.617 241.062 190.091 241.259C189.565 241.457 189.105 241.588 188.776 241.72C187.33 242.311 186.344 242.969 185.752 243.692C185.226 244.415 184.963 245.204 184.963 246.059Z" fill="#171A1F"></path><path d="M166.306 252.49V250.714L169.199 250.123C169.199 249.071 169.265 247.887 169.265 246.638C169.265 245.389 169.265 244.271 169.265 243.351V241.312C169.265 240.129 169.265 239.143 169.199 238.354C169.199 237.565 169.199 236.71 169.133 235.855L166.043 235.461V233.817L173.867 231.056L174.59 231.516L174.459 237.631V243.351C174.459 244.271 174.459 245.389 174.459 246.638C174.459 247.887 174.459 249.071 174.525 250.188L177.155 250.714V252.49H166.306ZM171.763 227.045C170.843 227.045 170.054 226.782 169.396 226.19C168.739 225.599 168.41 224.875 168.41 223.955C168.41 223.034 168.739 222.245 169.396 221.719C170.054 221.128 170.843 220.865 171.763 220.865C172.684 220.865 173.473 221.128 174.064 221.719C174.722 222.311 175.051 223.034 175.051 223.955C175.051 224.875 174.722 225.599 174.064 226.19C173.473 226.716 172.684 227.045 171.763 227.045Z" fill="#171A1F"></path><path d="M150.051 238.681H148.078C148.078 240.85 148.078 242.823 148.078 244.729C148.078 246.636 148.144 248.477 148.144 250.318H150.182C155.048 250.318 157.546 248.411 157.546 244.598C157.546 242.626 156.954 241.113 155.705 240.193C154.522 239.141 152.615 238.681 150.051 238.681ZM150.511 225.991H148.21C148.21 227.832 148.144 229.673 148.144 231.514C148.144 233.355 148.144 234.999 148.144 236.577H149.919C152.155 236.577 153.798 236.116 154.85 235.262C155.902 234.341 156.428 232.961 156.428 231.12C156.428 229.344 155.968 228.029 154.982 227.24C153.93 226.386 152.483 225.991 150.511 225.991ZM138.808 225.794V223.756H152.089C155.442 223.756 157.875 224.413 159.453 225.728C161.031 227.043 161.82 228.687 161.82 230.659C161.82 232.172 161.294 233.552 160.242 234.801C159.19 235.985 157.349 236.84 154.785 237.366C157.875 237.76 160.044 238.615 161.359 239.864C162.674 241.113 163.332 242.47 163.332 244.245C163.332 245.232 163.135 246.439 162.674 247.425C162.28 248.346 161.557 249.2 160.636 249.989C159.716 250.778 158.466 251.37 156.823 251.83C155.245 252.291 153.207 252.554 150.84 252.554H138.808V250.515L142.424 250.121C142.49 248.28 142.49 246.439 142.49 244.598C142.49 242.757 142.49 240.85 142.49 239.009V237.3C142.49 235.459 142.49 233.618 142.49 231.711C142.49 229.87 142.49 228.029 142.424 226.123L138.808 225.794Z" fill="#171A1F"></path><path d="M111.391 232.318C111.654 232.581 111.851 232.909 112.048 233.172C112.245 233.435 112.443 233.633 112.706 233.961C113.889 232.975 114.81 231.923 115.467 230.871C116.124 229.819 116.453 228.767 116.453 227.715C116.453 226.598 116.124 225.677 115.467 225.085C114.875 224.428 114.086 224.099 113.1 224.099C112.114 224.099 111.259 224.428 110.602 225.151C109.944 225.874 109.615 226.729 109.615 227.781C109.615 228.504 109.747 229.162 109.944 229.885C110.273 230.608 110.733 231.397 111.391 232.318ZM130.326 251.911C129.537 252.108 128.814 252.239 128.288 252.305C127.762 252.371 127.17 252.437 126.578 252.437C125.395 252.437 124.343 252.305 123.423 251.976C122.568 251.713 121.713 251.122 120.858 250.333C120.661 250.07 120.464 249.872 120.201 249.675C120.004 249.412 119.806 249.215 119.609 249.018C118.689 250.004 117.571 250.793 116.19 251.45C114.809 252.108 113.1 252.437 110.996 252.437C109.155 252.437 107.511 252.108 106.196 251.385C104.816 250.661 103.764 249.741 103.041 248.558C102.383 247.374 101.989 246.059 101.989 244.613C101.989 242.772 102.515 241.194 103.567 239.813C104.619 238.367 106.328 237.117 108.563 236.065C108.563 236 108.498 235.934 108.498 235.934C108.498 235.868 108.432 235.802 108.366 235.802C107.314 234.553 106.591 233.37 106.196 232.252C105.802 231.134 105.605 230.016 105.605 228.899C105.605 226.861 106.328 225.283 107.709 224.099C109.155 222.916 110.93 222.39 113.166 222.39C115.467 222.39 117.176 222.916 118.426 223.968C119.609 224.954 120.267 226.335 120.267 227.978C120.267 229.49 119.741 230.805 118.689 231.923C117.637 233.041 115.993 234.093 113.758 235.211C114.152 235.671 114.612 236.197 115.204 236.789C115.796 237.38 116.453 238.038 117.176 238.892C118.031 239.813 118.82 240.668 119.543 241.457C120.267 242.246 120.99 243.035 121.713 243.758C122.436 242.509 123.094 241.194 123.554 239.944C124.08 238.629 124.475 237.183 124.803 235.671L121.384 235.079V233.238H130.589V235.079L127.433 235.605C126.907 237.512 126.25 239.155 125.526 240.668C124.803 242.18 123.949 243.692 122.962 245.139C123.488 245.665 124.014 246.256 124.54 246.848C125.066 247.44 125.658 248.032 126.315 248.689L130.523 249.412L130.326 251.911ZM114.152 242.772C113.166 241.588 112.245 240.536 111.522 239.681C110.799 238.827 110.207 238.038 109.615 237.315C108.563 238.104 107.774 239.024 107.38 240.076C106.985 241.062 106.788 242.114 106.788 243.1C106.788 244.218 107.051 245.204 107.577 246.125C108.103 247.045 108.826 247.769 109.747 248.36C110.733 248.886 111.785 249.215 113.034 249.215C115.007 249.215 116.782 248.689 118.228 247.571C117.505 246.717 116.782 245.928 116.059 245.139C115.467 244.284 114.809 243.495 114.152 242.772Z" fill="#171A1F"></path><path d="M108.083 289.099C107.136 289.099 106.27 288.888 105.483 288.466C104.712 288.043 104.115 287.446 103.692 286.674L103.976 286.325V288.837H101.988V272.301H104.02V279.597L103.714 279.094C104.151 278.395 104.748 277.842 105.505 277.434C106.263 277.012 107.129 276.801 108.105 276.801C109.212 276.801 110.202 277.07 111.075 277.609C111.964 278.148 112.663 278.883 113.173 279.815C113.682 280.733 113.937 281.781 113.937 282.961C113.937 284.111 113.682 285.152 113.173 286.085C112.663 287.017 111.964 287.752 111.075 288.291C110.202 288.83 109.204 289.099 108.083 289.099ZM107.93 287.133C108.673 287.133 109.335 286.951 109.918 286.587C110.5 286.223 110.952 285.728 111.272 285.102C111.607 284.461 111.775 283.747 111.775 282.961C111.775 282.145 111.607 281.432 111.272 280.82C110.952 280.194 110.5 279.699 109.918 279.335C109.335 278.956 108.673 278.767 107.93 278.767C107.187 278.767 106.518 278.949 105.92 279.313C105.338 279.677 104.872 280.179 104.522 280.82C104.187 281.446 104.02 282.16 104.02 282.961C104.02 283.747 104.187 284.461 104.522 285.102C104.872 285.728 105.338 286.223 105.92 286.587C106.518 286.951 107.187 287.133 107.93 287.133ZM117.676 293.643C117.414 293.643 117.152 293.621 116.89 293.577C116.628 293.533 116.38 293.461 116.147 293.359V291.546C116.307 291.575 116.504 291.604 116.737 291.633C116.985 291.677 117.225 291.698 117.458 291.698C118.142 291.698 118.659 291.546 119.009 291.24C119.373 290.949 119.715 290.439 120.036 289.711L120.778 287.941L120.735 289.711L115.71 277.063H117.917L121.827 287.111H121.172L125.06 277.063H127.31L122.002 290.235C121.754 290.861 121.434 291.429 121.04 291.939C120.662 292.463 120.196 292.878 119.642 293.184C119.089 293.49 118.434 293.643 117.676 293.643ZM141.937 289.099C140.785 289.099 139.724 288.895 138.747 288.487C137.787 288.065 136.942 287.475 136.215 286.718C135.499 285.961 134.947 285.072 134.553 284.053C134.159 283.033 133.964 281.919 133.964 280.711C133.964 279.488 134.159 278.366 134.553 277.347C134.947 276.327 135.499 275.439 136.215 274.682C136.927 273.924 137.772 273.342 138.747 272.934C139.724 272.512 140.785 272.301 141.937 272.301C143.058 272.301 144.061 272.497 144.952 272.891C145.855 273.284 146.611 273.793 147.223 274.42C147.849 275.046 148.292 275.716 148.556 276.429L146.591 277.325C146.211 276.422 145.622 275.694 144.82 275.141C144.018 274.573 143.058 274.289 141.937 274.289C140.802 274.289 139.787 274.558 138.899 275.097C138.025 275.636 137.341 276.386 136.847 277.347C136.352 278.308 136.105 279.429 136.105 280.711C136.105 281.978 136.352 283.092 136.847 284.053C137.341 285.014 138.025 285.764 138.899 286.303C139.787 286.842 140.802 287.111 141.937 287.111C143.058 287.111 144.018 286.834 144.82 286.281C145.622 285.713 146.211 284.978 146.591 284.075L148.556 284.97C148.292 285.684 147.849 286.354 147.223 286.98C146.611 287.606 145.855 288.116 144.952 288.509C144.061 288.902 143.058 289.099 141.937 289.099ZM157.26 289.099C156.124 289.099 155.098 288.837 154.181 288.313C153.265 287.774 152.534 287.038 151.997 286.106C151.457 285.174 151.189 284.119 151.189 282.939C151.189 281.759 151.451 280.711 151.974 279.793C152.514 278.876 153.241 278.148 154.158 277.609C155.075 277.07 156.11 276.801 157.26 276.801C158.398 276.801 159.424 277.07 160.341 277.609C161.258 278.133 161.979 278.854 162.502 279.772C163.043 280.689 163.313 281.745 163.313 282.939C163.313 284.133 163.034 285.196 162.482 286.128C161.928 287.046 161.192 287.774 160.275 288.313C159.372 288.837 158.366 289.099 157.26 289.099ZM157.26 287.133C157.99 287.133 158.645 286.951 159.226 286.587C159.824 286.223 160.289 285.72 160.625 285.08C160.973 284.439 161.149 283.725 161.149 282.939C161.149 282.138 160.973 281.432 160.625 280.82C160.289 280.194 159.824 279.699 159.226 279.335C158.645 278.956 157.99 278.767 157.26 278.767C156.518 278.767 155.848 278.956 155.251 279.335C154.67 279.699 154.202 280.194 153.854 280.82C153.503 281.432 153.328 282.138 153.328 282.939C153.328 283.725 153.503 284.439 153.854 285.08C154.202 285.72 154.67 286.223 155.251 286.587C155.848 286.951 156.518 287.133 157.26 287.133ZM166.615 288.837V277.063H168.604V279.225L168.386 278.92C168.662 278.25 169.084 277.755 169.653 277.434C170.22 277.099 170.912 276.932 171.729 276.932H172.45V278.854H171.421C170.593 278.854 169.924 279.116 169.412 279.64C168.903 280.15 168.647 280.878 168.647 281.825V288.837H166.615ZM180.326 289.099C179.19 289.099 178.178 288.83 177.29 288.291C176.402 287.752 175.704 287.017 175.192 286.085C174.683 285.138 174.428 284.082 174.428 282.917C174.428 281.738 174.675 280.689 175.172 279.772C175.681 278.854 176.365 278.133 177.224 277.609C178.098 277.07 179.075 276.801 180.15 276.801C181.024 276.801 181.797 276.961 182.467 277.281C183.151 277.587 183.726 278.009 184.191 278.548C184.674 279.073 185.036 279.677 185.284 280.361C185.548 281.031 185.677 281.73 185.677 282.458C185.677 282.618 185.663 282.801 185.634 283.004C185.62 283.194 185.597 283.376 185.568 283.551H175.914V281.803H184.39L183.427 282.589C183.559 281.832 183.487 281.155 183.208 280.558C182.932 279.961 182.524 279.488 181.987 279.138C181.447 278.789 180.837 278.614 180.15 278.614C179.466 278.614 178.84 278.789 178.273 279.138C177.704 279.488 177.262 279.99 176.94 280.645C176.635 281.286 176.511 282.051 176.569 282.939C176.511 283.798 176.641 284.555 176.963 285.211C177.296 285.851 177.765 286.354 178.36 286.718C178.972 287.068 179.636 287.242 180.349 287.242C181.133 287.242 181.797 287.06 182.335 286.696C182.875 286.332 183.312 285.866 183.645 285.298L185.35 286.172C185.117 286.711 184.755 287.206 184.257 287.657C183.777 288.094 183.203 288.444 182.533 288.706C181.878 288.968 181.142 289.099 180.326 289.099ZM192.216 288.837L187.649 272.563H189.9L193.722 286.893H193.199L197.174 272.563H199.425L203.377 286.893H202.831L206.677 272.563H208.927L204.36 288.837H201.98L198.005 274.573H198.571L194.596 288.837H192.216ZM216.004 289.099C214.868 289.099 213.856 288.83 212.968 288.291C212.077 287.752 211.379 287.017 210.87 286.085C210.361 285.138 210.106 284.082 210.106 282.917C210.106 281.738 210.353 280.689 210.847 279.772C211.359 278.854 212.043 278.133 212.902 277.609C213.776 277.07 214.75 276.801 215.828 276.801C216.702 276.801 217.475 276.961 218.145 277.281C218.829 277.587 219.404 278.009 219.869 278.548C220.349 279.073 220.714 279.677 220.962 280.361C221.223 281.031 221.355 281.73 221.355 282.458C221.355 282.618 221.341 282.801 221.312 283.004C221.298 283.194 221.275 283.376 221.246 283.551H211.592V281.803H220.068L219.105 282.589C219.237 281.832 219.162 281.155 218.886 280.558C218.61 279.961 218.202 279.488 217.665 279.138C217.124 278.789 216.512 278.614 215.828 278.614C215.144 278.614 214.518 278.789 213.951 279.138C213.382 279.488 212.937 279.99 212.618 280.645C212.313 281.286 212.187 282.051 212.247 282.939C212.187 283.798 212.319 284.555 212.641 285.211C212.974 285.851 213.44 286.354 214.038 286.718C214.65 287.068 215.311 287.242 216.027 287.242C216.811 287.242 217.475 287.06 218.013 286.696C218.553 286.332 218.99 285.866 219.323 285.298L221.028 286.172C220.795 286.711 220.43 287.206 219.935 287.657C219.455 288.094 218.881 288.444 218.211 288.706C217.556 288.968 216.82 289.099 216.004 289.099ZM227.96 289.099C227.19 289.099 226.506 288.961 225.908 288.684C225.325 288.393 224.868 288 224.531 287.504C224.198 286.995 224.028 286.412 224.028 285.757C224.028 285.131 224.161 284.57 224.422 284.075C224.698 283.565 225.121 283.136 225.69 282.786C226.273 282.437 227 282.189 227.874 282.043L232.243 281.322V283.026L228.334 283.682C227.575 283.813 227.023 284.053 226.673 284.402C226.336 284.752 226.17 285.182 226.17 285.691C226.17 286.172 226.359 286.572 226.739 286.893C227.133 287.213 227.618 287.373 228.202 287.373C228.943 287.373 229.584 287.22 230.125 286.915C230.677 286.594 231.108 286.165 231.412 285.626C231.734 285.087 231.892 284.49 231.892 283.835V280.842C231.892 280.201 231.654 279.684 231.174 279.291C230.705 278.883 230.087 278.679 229.317 278.679C228.644 278.679 228.049 278.854 227.523 279.204C227.015 279.538 226.635 279.99 226.388 280.558L224.621 279.64C224.839 279.102 225.187 278.621 225.667 278.199C226.15 277.762 226.71 277.42 227.351 277.172C227.989 276.925 228.662 276.801 229.36 276.801C230.263 276.801 231.056 276.975 231.74 277.325C232.424 277.66 232.956 278.133 233.335 278.745C233.729 279.342 233.924 280.041 233.924 280.842V288.837H231.938V286.609L232.309 286.74C232.062 287.206 231.726 287.614 231.303 287.963C230.881 288.313 230.386 288.589 229.817 288.793C229.251 288.997 228.63 289.099 227.96 289.099ZM240.794 288.837L236.184 277.063H238.457L242.148 287.024H241.36L245.074 277.063H247.347L242.717 288.837H240.794ZM255.024 289.099C253.889 289.099 252.874 288.83 251.986 288.291C251.098 287.752 250.4 287.017 249.891 286.085C249.379 285.138 249.126 284.082 249.126 282.917C249.126 281.738 249.373 280.689 249.868 279.772C250.377 278.854 251.064 278.133 251.923 277.609C252.797 277.07 253.771 276.801 254.849 276.801C255.723 276.801 256.493 276.961 257.166 277.281C257.85 277.587 258.424 278.009 258.89 278.548C259.37 279.073 259.735 279.677 259.982 280.361C260.244 281.031 260.376 281.73 260.376 282.458C260.376 282.618 260.362 282.801 260.333 283.004C260.316 283.194 260.296 283.376 260.267 283.551H250.612V281.803H259.086L258.126 282.589C258.258 281.832 258.183 281.155 257.907 280.558C257.631 279.961 257.223 279.488 256.683 279.138C256.145 278.789 255.533 278.614 254.849 278.614C254.165 278.614 253.538 278.789 252.969 279.138C252.403 279.488 251.957 279.99 251.638 280.645C251.331 281.286 251.207 282.051 251.268 282.939C251.207 283.798 251.339 284.555 251.658 285.211C251.995 285.851 252.46 286.354 253.058 286.718C253.671 287.068 254.332 287.242 255.044 287.242C255.832 287.242 256.493 287.06 257.033 286.696C257.571 286.332 258.008 285.866 258.344 285.298L260.048 286.172C259.816 286.711 259.451 287.206 258.956 287.657C258.476 288.094 257.898 288.444 257.229 288.706C256.573 288.968 255.838 289.099 255.024 289.099Z" fill="#171A1F"></path><path d="M249.908 208.184C248.593 208.184 247.343 208.053 246.226 207.724C245.108 207.461 244.056 207.001 242.938 206.409L242.872 201.346H245.765L246.554 205.357C247.606 205.817 248.724 206.015 249.973 206.015C251.42 206.015 252.537 205.752 253.261 205.226C253.984 204.7 254.378 203.976 254.378 203.056C254.378 202.267 254.115 201.609 253.524 201.083C252.932 200.557 251.946 200.097 250.565 199.637L248.395 198.914C246.752 198.388 245.502 197.599 244.516 196.613C243.596 195.626 243.135 194.311 243.135 192.799C243.135 191.616 243.464 190.498 244.122 189.512C244.779 188.525 245.7 187.671 246.883 187.145C248.132 186.553 249.644 186.224 251.42 186.224C252.669 186.224 253.787 186.356 254.839 186.685C255.891 186.947 256.877 187.408 257.929 187.999L257.732 192.536H254.839L254.05 188.92C253.261 188.591 252.34 188.394 251.354 188.394C250.17 188.394 249.316 188.657 248.658 189.117C248.001 189.577 247.672 190.301 247.672 191.09C247.672 191.879 247.935 192.536 248.461 192.996C248.987 193.457 250.039 193.917 251.485 194.443L253.195 194.969C255.299 195.692 256.811 196.612 257.732 197.664C258.652 198.716 259.047 200.031 259.047 201.544C259.047 203.516 258.258 205.094 256.68 206.343C255.102 207.527 252.866 208.184 249.908 208.184Z" fill="#171A1F"></path><path d="M235.311 208.184C233.602 208.184 232.221 207.724 231.235 206.869C230.249 206.015 229.789 204.634 229.789 202.727C229.789 202.07 229.789 201.412 229.789 200.886C229.789 200.295 229.854 199.571 229.854 198.717V189.446H226.633V187.211L230.183 186.75L231.827 180.767H235.377L235.18 186.75H240.374V189.38H235.114V202.201C235.114 203.253 235.311 204.042 235.706 204.568C236.166 205.028 236.692 205.291 237.415 205.291C238.204 205.291 239.059 204.897 240.045 204.174L241.097 205.291C240.571 206.212 239.782 206.869 238.862 207.395C237.876 207.921 236.692 208.184 235.311 208.184Z" fill="#171A1F"></path><path d="M201.188 207.527V205.752L204.081 205.16C204.081 204.108 204.147 202.924 204.147 201.675C204.147 200.426 204.147 199.308 204.147 198.388V179.781L200.991 179.321V177.677L208.749 175.705L209.407 176.099L209.209 182.214V189.972C211.445 187.408 213.943 186.093 216.639 186.093C218.546 186.093 219.992 186.684 221.044 187.934C222.096 189.183 222.622 191.155 222.622 193.851V198.388C222.622 199.374 222.622 200.492 222.622 201.741C222.622 202.99 222.622 204.174 222.688 205.226L225.318 205.752V207.527H214.601V205.752L217.362 205.16C217.362 204.108 217.428 202.924 217.428 201.741C217.428 200.492 217.428 199.374 217.428 198.388V194.246C217.428 192.536 217.165 191.353 216.705 190.695C216.244 190.038 215.521 189.709 214.403 189.709C212.76 189.709 211.116 190.564 209.341 192.207V198.388C209.341 199.374 209.341 200.426 209.341 201.675C209.341 202.924 209.341 204.108 209.407 205.226L211.971 205.752V207.527H201.188Z" fill="#171A1F"></path><path d="M187.578 198.322C188.827 198.322 189.748 197.862 190.34 196.876C190.997 195.889 191.326 194.64 191.326 193.062C191.326 191.55 190.997 190.301 190.34 189.446C189.748 188.526 188.827 188.065 187.71 188.065C186.592 188.065 185.671 188.526 184.948 189.512C184.291 190.432 183.962 191.682 183.962 193.259C183.962 194.837 184.291 196.087 184.882 197.007C185.54 197.862 186.46 198.322 187.578 198.322ZM182.121 211.603C182.121 212.918 182.581 213.904 183.567 214.496C184.554 215.088 185.934 215.417 187.775 215.417C190.077 215.417 191.786 215.022 192.969 214.299C194.153 213.576 194.745 212.655 194.745 211.538C194.745 210.749 194.482 210.025 193.89 209.434C193.364 208.842 192.378 208.579 190.997 208.579H186.197C185.145 208.579 184.159 208.513 183.304 208.316C182.515 209.368 182.121 210.486 182.121 211.603ZM187.71 200.229C186.395 200.229 185.211 200.097 184.093 199.769C183.567 200.492 183.239 201.347 183.239 202.135C183.239 202.661 183.436 203.122 183.765 203.45C184.159 203.779 184.817 203.911 185.737 203.911H191.194C194.021 203.911 196.06 204.437 197.243 205.489C198.492 206.541 199.084 207.987 199.084 209.828C199.084 211.209 198.624 212.458 197.769 213.641C196.914 214.825 195.599 215.811 193.89 216.534C192.18 217.258 190.011 217.652 187.447 217.652C185.211 217.652 183.436 217.389 182.055 216.929C180.74 216.469 179.754 215.811 179.162 215.088C178.571 214.299 178.308 213.444 178.308 212.458C178.308 211.537 178.636 210.683 179.228 209.894C179.82 209.171 180.806 208.447 182.252 207.79C181.332 207.461 180.675 207.001 180.28 206.475C179.82 205.883 179.623 205.16 179.623 204.371C179.623 203.516 179.886 202.727 180.346 201.872C180.872 201.018 181.661 200.097 182.713 199.111C180.412 197.928 179.294 195.955 179.294 193.128C179.294 190.958 180.017 189.249 181.529 188C183.041 186.685 185.08 186.027 187.71 186.027C190.34 186.027 192.378 186.619 193.89 187.868L198.821 186.027L199.479 186.487V189.512H195.271C195.862 190.498 196.191 191.682 196.191 193.128C196.191 195.232 195.468 196.941 193.956 198.256C192.443 199.637 190.34 200.229 187.71 200.229Z" fill="#171A1F"></path><path d="M165.224 207.527V205.751L168.117 205.16C168.117 204.108 168.182 202.924 168.182 201.675C168.182 200.426 168.182 199.308 168.182 198.388V196.349C168.182 195.166 168.182 194.18 168.117 193.391C168.117 192.602 168.117 191.747 168.051 190.892L164.961 190.498V188.854L172.785 186.093L173.508 186.553L173.376 192.667V198.388C173.376 199.308 173.376 200.426 173.376 201.675C173.376 202.924 173.376 204.108 173.442 205.225L176.072 205.751V207.527H165.224ZM170.681 182.082C169.76 182.082 168.971 181.819 168.314 181.227C167.656 180.636 167.328 179.912 167.328 178.992C167.328 178.071 167.656 177.282 168.314 176.756C168.971 176.165 169.76 175.902 170.681 175.902C171.601 175.902 172.39 176.165 172.982 176.756C173.639 177.348 173.968 178.071 173.968 178.992C173.968 179.912 173.639 180.636 172.982 181.227C172.39 181.819 171.601 182.082 170.681 182.082Z" fill="#171A1F"></path><path d="M153.323 188.197C152.6 188.197 151.943 188.46 151.219 188.92C150.562 189.38 149.97 190.103 149.51 191.09C149.05 192.076 148.787 193.456 148.655 195.232H154.638C155.69 195.232 156.348 195.034 156.742 194.574C157.071 194.114 157.268 193.522 157.268 192.733C157.268 191.418 156.874 190.301 156.15 189.446C155.296 188.657 154.375 188.197 153.323 188.197ZM153.323 208.184C151.285 208.184 149.51 207.724 147.998 206.869C146.485 206.014 145.236 204.765 144.382 203.122C143.527 201.478 143.067 199.505 143.067 197.27C143.067 194.969 143.527 192.996 144.513 191.287C145.499 189.577 146.814 188.328 148.392 187.473C150.036 186.553 151.745 186.158 153.586 186.158C155.296 186.158 156.808 186.553 158.057 187.276C159.306 187.999 160.293 188.986 161.016 190.301C161.739 191.616 162.134 193.128 162.134 194.903C162.134 195.823 162.068 196.612 161.871 197.27H148.589C148.721 199.768 149.378 201.609 150.562 202.859C151.745 204.108 153.323 204.699 155.098 204.699C156.348 204.699 157.465 204.436 158.32 203.976C159.241 203.45 160.03 202.793 160.753 202.004L162.002 203.122C161.147 204.699 160.03 205.949 158.517 206.869C157.071 207.724 155.361 208.184 153.323 208.184Z" fill="#171A1F"></path><path d="M134.979 180.767V178.729H144.513V180.767L140.962 181.359L133.467 207.724H130.443L123.605 186.553L117.03 207.724H114.006L106.313 181.162L103.157 180.833V178.795H115.781V180.833L112.165 181.293L117.096 200.097L123.079 181.293L119.331 180.833V178.795H131.692V180.833L127.616 181.293L133.401 200.294L138.661 181.293L134.979 180.767Z" fill="#171A1F"></path><path d="M251.237 252.498C249.922 252.498 248.673 252.366 247.555 252.037C246.438 251.774 245.386 251.314 244.268 250.722L244.202 245.66H247.095L247.884 249.67C248.936 250.131 250.054 250.328 251.303 250.328C252.75 250.328 253.867 250.065 254.591 249.539C255.314 249.013 255.708 248.29 255.708 247.369C255.708 246.58 255.445 245.923 254.854 245.397C254.262 244.871 253.276 244.411 251.895 243.95L249.725 243.227C248.081 242.701 246.832 241.912 245.846 240.926C244.926 239.94 244.465 238.625 244.465 237.113C244.465 235.863 244.794 234.811 245.452 233.825C246.109 232.839 247.029 231.984 248.213 231.458C249.462 230.866 250.974 230.538 252.75 230.538C253.999 230.538 255.117 230.669 256.169 230.998C257.221 231.261 258.207 231.721 259.259 232.313L259.061 236.85H256.169L255.38 233.233C254.591 232.905 253.67 232.707 252.684 232.707C251.5 232.707 250.646 232.97 249.988 233.431C249.331 233.891 249.002 234.614 249.002 235.403C249.002 236.192 249.265 236.85 249.791 237.31C250.317 237.77 251.369 238.23 252.815 238.756L254.525 239.282C256.629 240.005 258.141 240.926 259.061 241.978C259.982 243.03 260.376 244.345 260.376 245.857C260.376 247.83 259.587 249.407 258.009 250.657C256.366 251.906 254.13 252.498 251.237 252.498Z" fill="#171A1F"></path><path d="M231.973 232.571C231.25 232.571 230.592 232.834 229.869 233.294C229.212 233.754 228.62 234.477 228.16 235.464C227.7 236.45 227.437 237.831 227.305 239.606H233.288C234.34 239.606 234.998 239.409 235.392 238.948C235.721 238.488 235.918 237.896 235.918 237.107C235.918 235.792 235.524 234.675 234.8 233.82C233.946 232.965 233.025 232.571 231.973 232.571ZM231.973 252.492C229.935 252.492 228.16 252.032 226.648 251.178C225.135 250.323 223.886 249.074 223.031 247.43C222.177 245.786 221.716 243.814 221.716 241.578C221.716 239.277 222.177 237.305 223.163 235.595C224.149 233.886 225.464 232.636 227.042 231.782C228.686 230.861 230.395 230.467 232.236 230.467C233.946 230.467 235.458 230.796 236.707 231.585C237.956 232.308 238.942 233.294 239.666 234.609C240.389 235.924 240.783 237.436 240.783 239.211C240.783 240.132 240.718 240.921 240.52 241.578H227.239C227.371 244.077 228.028 245.918 229.212 247.167C230.461 248.416 231.973 249.008 233.748 249.008C234.998 249.008 236.115 248.745 236.97 248.285C237.89 247.759 238.679 247.101 239.403 246.312L240.652 247.43C239.797 249.008 238.68 250.257 237.167 251.178C235.721 252.098 234.011 252.492 231.973 252.492Z" fill="#171A1F"></path><path d="M209.553 252.487C208.238 252.487 206.989 252.356 205.871 252.027C204.753 251.764 203.701 251.304 202.584 250.712L202.518 245.649H205.411L206.2 249.66C207.252 250.12 208.369 250.317 209.619 250.317C211.065 250.317 212.183 250.054 212.906 249.528C213.629 249.002 214.024 248.279 214.024 247.359C214.024 246.57 213.761 245.912 213.169 245.386C212.577 244.86 211.591 244.4 210.21 243.94L208.041 243.217C206.397 242.691 205.148 241.902 204.161 240.915C203.241 239.929 202.781 238.614 202.781 237.102C202.781 235.853 203.109 234.801 203.767 233.815C204.424 232.828 205.345 231.974 206.528 231.448C207.778 230.856 209.29 230.527 211.065 230.527C212.314 230.527 213.432 230.659 214.484 230.987C215.536 231.25 216.522 231.711 217.574 232.302L217.377 236.839H214.418L213.629 233.223C212.84 232.894 211.92 232.697 210.934 232.697C209.75 232.697 208.895 232.96 208.238 233.42C207.58 233.88 207.252 234.604 207.252 235.393C207.252 236.182 207.515 236.839 208.041 237.299C208.567 237.759 209.619 238.22 211.065 238.746L212.774 239.272C214.878 239.995 216.391 240.915 217.311 241.967C218.232 243.019 218.626 244.334 218.626 245.847C218.626 247.819 217.837 249.397 216.259 250.646C214.747 251.895 212.512 252.487 209.553 252.487Z" fill="#171A1F"></path><path d="M196.272 252.371C195.088 252.371 194.168 252.108 193.445 251.516C192.721 250.924 192.261 250.135 191.998 249.149C190.946 250.267 189.96 251.122 189.105 251.648C188.25 252.174 187.133 252.502 185.686 252.502C184.043 252.502 182.662 252.042 181.544 251.122C180.426 250.135 179.9 248.82 179.9 247.045C179.9 246.125 180.098 245.27 180.558 244.481C181.018 243.692 181.741 242.903 182.859 242.246C183.977 241.522 185.62 240.865 187.659 240.207C188.25 240.01 188.908 239.813 189.631 239.616C190.354 239.418 191.078 239.221 191.867 239.024V237.84C191.867 235.802 191.604 234.422 191.012 233.764C190.486 233.041 189.5 232.646 188.053 232.646C187.79 232.646 187.527 232.646 187.198 232.712C186.935 232.712 186.607 232.778 186.278 232.844L185.752 235.21C185.62 236.262 185.358 237.051 184.832 237.512C184.371 237.972 183.714 238.235 182.991 238.235C181.61 238.235 180.821 237.577 180.558 236.262C180.821 234.553 181.741 233.107 183.319 232.12C184.963 231.068 187.067 230.542 189.697 230.542C192.195 230.542 194.036 231.134 195.22 232.383C196.403 233.567 196.929 235.605 196.929 238.432V247.9C196.929 249.215 197.324 249.872 198.178 249.872C198.704 249.872 199.23 249.544 199.691 248.886L200.677 249.792C200.151 250.778 199.559 251.45 198.836 251.845C198.178 252.174 197.324 252.371 196.272 252.371ZM184.963 246.059C184.963 247.177 185.226 248.031 185.818 248.557C186.409 249.018 187.133 249.281 188.053 249.281C188.513 249.281 189.039 249.149 189.5 248.952C189.96 248.689 190.749 248.229 191.801 247.505V240.668C191.209 240.865 190.617 241.062 190.091 241.259C189.565 241.457 189.105 241.588 188.776 241.72C187.33 242.311 186.344 242.969 185.752 243.692C185.226 244.415 184.963 245.204 184.963 246.059Z" fill="#171A1F"></path><path d="M166.306 252.49V250.714L169.199 250.123C169.199 249.071 169.265 247.887 169.265 246.638C169.265 245.389 169.265 244.271 169.265 243.351V241.312C169.265 240.129 169.265 239.143 169.199 238.354C169.199 237.565 169.199 236.71 169.133 235.855L166.043 235.461V233.817L173.867 231.056L174.59 231.516L174.459 237.631V243.351C174.459 244.271 174.459 245.389 174.459 246.638C174.459 247.887 174.459 249.071 174.525 250.188L177.155 250.714V252.49H166.306ZM171.763 227.045C170.843 227.045 170.054 226.782 169.396 226.19C168.739 225.599 168.41 224.875 168.41 223.955C168.41 223.034 168.739 222.245 169.396 221.719C170.054 221.128 170.843 220.865 171.763 220.865C172.684 220.865 173.473 221.128 174.064 221.719C174.722 222.311 175.051 223.034 175.051 223.955C175.051 224.875 174.722 225.599 174.064 226.19C173.473 226.716 172.684 227.045 171.763 227.045Z" fill="#171A1F"></path><path d="M150.051 238.681H148.078C148.078 240.85 148.078 242.823 148.078 244.729C148.078 246.636 148.144 248.477 148.144 250.318H150.182C155.048 250.318 157.546 248.411 157.546 244.598C157.546 242.626 156.954 241.113 155.705 240.193C154.522 239.141 152.615 238.681 150.051 238.681ZM150.511 225.991H148.21C148.21 227.832 148.144 229.673 148.144 231.514C148.144 233.355 148.144 234.999 148.144 236.577H149.919C152.155 236.577 153.798 236.116 154.85 235.262C155.902 234.341 156.428 232.961 156.428 231.12C156.428 229.344 155.968 228.029 154.982 227.24C153.93 226.386 152.483 225.991 150.511 225.991ZM138.808 225.794V223.756H152.089C155.442 223.756 157.875 224.413 159.453 225.728C161.031 227.043 161.82 228.687 161.82 230.659C161.82 232.172 161.294 233.552 160.242 234.801C159.19 235.985 157.349 236.84 154.785 237.366C157.875 237.76 160.044 238.615 161.359 239.864C162.674 241.113 163.332 242.47 163.332 244.245C163.332 245.232 163.135 246.439 162.674 247.425C162.28 248.346 161.557 249.2 160.636 249.989C159.716 250.778 158.466 251.37 156.823 251.83C155.245 252.291 153.207 252.554 150.84 252.554H138.808V250.515L142.424 250.121C142.49 248.28 142.49 246.439 142.49 244.598C142.49 242.757 142.49 240.85 142.49 239.009V237.3C142.49 235.459 142.49 233.618 142.49 231.711C142.49 229.87 142.49 228.029 142.424 226.123L138.808 225.794Z" fill="#171A1F"></path><path d="M111.391 232.318C111.654 232.581 111.851 232.909 112.048 233.172C112.245 233.435 112.443 233.633 112.706 233.961C113.889 232.975 114.81 231.923 115.467 230.871C116.124 229.819 116.453 228.767 116.453 227.715C116.453 226.598 116.124 225.677 115.467 225.085C114.875 224.428 114.086 224.099 113.1 224.099C112.114 224.099 111.259 224.428 110.602 225.151C109.944 225.874 109.615 226.729 109.615 227.781C109.615 228.504 109.747 229.162 109.944 229.885C110.273 230.608 110.733 231.397 111.391 232.318ZM130.326 251.911C129.537 252.108 128.814 252.239 128.288 252.305C127.762 252.371 127.17 252.437 126.578 252.437C125.395 252.437 124.343 252.305 123.423 251.976C122.568 251.713 121.713 251.122 120.858 250.333C120.661 250.07 120.464 249.872 120.201 249.675C120.004 249.412 119.806 249.215 119.609 249.018C118.689 250.004 117.571 250.793 116.19 251.45C114.809 252.108 113.1 252.437 110.996 252.437C109.155 252.437 107.511 252.108 106.196 251.385C104.816 250.661 103.764 249.741 103.041 248.558C102.383 247.374 101.989 246.059 101.989 244.613C101.989 242.772 102.515 241.194 103.567 239.813C104.619 238.367 106.328 237.117 108.563 236.065C108.563 236 108.498 235.934 108.498 235.934C108.498 235.868 108.432 235.802 108.366 235.802C107.314 234.553 106.591 233.37 106.196 232.252C105.802 231.134 105.605 230.016 105.605 228.899C105.605 226.861 106.328 225.283 107.709 224.099C109.155 222.916 110.93 222.39 113.166 222.39C115.467 222.39 117.176 222.916 118.426 223.968C119.609 224.954 120.267 226.335 120.267 227.978C120.267 229.49 119.741 230.805 118.689 231.923C117.637 233.041 115.993 234.093 113.758 235.211C114.152 235.671 114.612 236.197 115.204 236.789C115.796 237.38 116.453 238.038 117.176 238.892C118.031 239.813 118.82 240.668 119.543 241.457C120.267 242.246 120.99 243.035 121.713 243.758C122.436 242.509 123.094 241.194 123.554 239.944C124.08 238.629 124.475 237.183 124.803 235.671L121.384 235.079V233.238H130.589V235.079L127.433 235.605C126.907 237.512 126.25 239.155 125.526 240.668C124.803 242.18 123.949 243.692 122.962 245.139C123.488 245.665 124.014 246.256 124.54 246.848C125.066 247.44 125.658 248.032 126.315 248.689L130.523 249.412L130.326 251.911ZM114.152 242.772C113.166 241.588 112.245 240.536 111.522 239.681C110.799 238.827 110.207 238.038 109.615 237.315C108.563 238.104 107.774 239.024 107.38 240.076C106.985 241.062 106.788 242.114 106.788 243.1C106.788 244.218 107.051 245.204 107.577 246.125C108.103 247.045 108.826 247.769 109.747 248.36C110.733 248.886 111.785 249.215 113.034 249.215C115.007 249.215 116.782 248.689 118.228 247.571C117.505 246.717 116.782 245.928 116.059 245.139C115.467 244.284 114.809 243.495 114.152 242.772Z" fill="#171A1F"></path><path d="M108.083 289.099C107.136 289.099 106.27 288.888 105.483 288.466C104.712 288.043 104.115 287.446 103.692 286.674L103.976 286.325V288.837H101.988V272.301H104.02V279.597L103.714 279.094C104.151 278.395 104.748 277.842 105.505 277.434C106.263 277.012 107.129 276.801 108.105 276.801C109.212 276.801 110.202 277.07 111.075 277.609C111.964 278.148 112.663 278.883 113.173 279.815C113.682 280.733 113.937 281.781 113.937 282.961C113.937 284.111 113.682 285.152 113.173 286.085C112.663 287.017 111.964 287.752 111.075 288.291C110.202 288.83 109.204 289.099 108.083 289.099ZM107.93 287.133C108.673 287.133 109.335 286.951 109.918 286.587C110.5 286.223 110.952 285.728 111.272 285.102C111.607 284.461 111.775 283.747 111.775 282.961C111.775 282.145 111.607 281.432 111.272 280.82C110.952 280.194 110.5 279.699 109.918 279.335C109.335 278.956 108.673 278.767 107.93 278.767C107.187 278.767 106.518 278.949 105.92 279.313C105.338 279.677 104.872 280.179 104.522 280.82C104.187 281.446 104.02 282.16 104.02 282.961C104.02 283.747 104.187 284.461 104.522 285.102C104.872 285.728 105.338 286.223 105.92 286.587C106.518 286.951 107.187 287.133 107.93 287.133ZM117.676 293.643C117.414 293.643 117.152 293.621 116.89 293.577C116.628 293.533 116.38 293.461 116.147 293.359V291.546C116.307 291.575 116.504 291.604 116.737 291.633C116.985 291.677 117.225 291.698 117.458 291.698C118.142 291.698 118.659 291.546 119.009 291.24C119.373 290.949 119.715 290.439 120.036 289.711L120.778 287.941L120.735 289.711L115.71 277.063H117.917L121.827 287.111H121.172L125.06 277.063H127.31L122.002 290.235C121.754 290.861 121.434 291.429 121.04 291.939C120.662 292.463 120.196 292.878 119.642 293.184C119.089 293.49 118.434 293.643 117.676 293.643ZM141.937 289.099C140.785 289.099 139.724 288.895 138.747 288.487C137.787 288.065 136.942 287.475 136.215 286.718C135.499 285.961 134.947 285.072 134.553 284.053C134.159 283.033 133.964 281.919 133.964 280.711C133.964 279.488 134.159 278.366 134.553 277.347C134.947 276.327 135.499 275.439 136.215 274.682C136.927 273.924 137.772 273.342 138.747 272.934C139.724 272.512 140.785 272.301 141.937 272.301C143.058 272.301 144.061 272.497 144.952 272.891C145.855 273.284 146.611 273.793 147.223 274.42C147.849 275.046 148.292 275.716 148.556 276.429L146.591 277.325C146.211 276.422 145.622 275.694 144.82 275.141C144.018 274.573 143.058 274.289 141.937 274.289C140.802 274.289 139.787 274.558 138.899 275.097C138.025 275.636 137.341 276.386 136.847 277.347C136.352 278.308 136.105 279.429 136.105 280.711C136.105 281.978 136.352 283.092 136.847 284.053C137.341 285.014 138.025 285.764 138.899 286.303C139.787 286.842 140.802 287.111 141.937 287.111C143.058 287.111 144.018 286.834 144.82 286.281C145.622 285.713 146.211 284.978 146.591 284.075L148.556 284.97C148.292 285.684 147.849 286.354 147.223 286.98C146.611 287.606 145.855 288.116 144.952 288.509C144.061 288.902 143.058 289.099 141.937 289.099ZM157.26 289.099C156.124 289.099 155.098 288.837 154.181 288.313C153.265 287.774 152.534 287.038 151.997 286.106C151.457 285.174 151.189 284.119 151.189 282.939C151.189 281.759 151.451 280.711 151.974 279.793C152.514 278.876 153.241 278.148 154.158 277.609C155.075 277.07 156.11 276.801 157.26 276.801C158.398 276.801 159.424 277.07 160.341 277.609C161.258 278.133 161.979 278.854 162.502 279.772C163.043 280.689 163.313 281.745 163.313 282.939C163.313 284.133 163.034 285.196 162.482 286.128C161.928 287.046 161.192 287.774 160.275 288.313C159.372 288.837 158.366 289.099 157.26 289.099ZM157.26 287.133C157.99 287.133 158.645 286.951 159.226 286.587C159.824 286.223 160.289 285.72 160.625 285.08C160.973 284.439 161.149 283.725 161.149 282.939C161.149 282.138 160.973 281.432 160.625 280.82C160.289 280.194 159.824 279.699 159.226 279.335C158.645 278.956 157.99 278.767 157.26 278.767C156.518 278.767 155.848 278.956 155.251 279.335C154.67 279.699 154.202 280.194 153.854 280.82C153.503 281.432 153.328 282.138 153.328 282.939C153.328 283.725 153.503 284.439 153.854 285.08C154.202 285.72 154.67 286.223 155.251 286.587C155.848 286.951 156.518 287.133 157.26 287.133ZM166.615 288.837V277.063H168.604V279.225L168.386 278.92C168.662 278.25 169.084 277.755 169.653 277.434C170.22 277.099 170.912 276.932 171.729 276.932H172.45V278.854H171.421C170.593 278.854 169.924 279.116 169.412 279.64C168.903 280.15 168.647 280.878 168.647 281.825V288.837H166.615ZM180.326 289.099C179.19 289.099 178.178 288.83 177.29 288.291C176.402 287.752 175.704 287.017 175.192 286.085C174.683 285.138 174.428 284.082 174.428 282.917C174.428 281.738 174.675 280.689 175.172 279.772C175.681 278.854 176.365 278.133 177.224 277.609C178.098 277.07 179.075 276.801 180.15 276.801C181.024 276.801 181.797 276.961 182.467 277.281C183.151 277.587 183.726 278.009 184.191 278.548C184.674 279.073 185.036 279.677 185.284 280.361C185.548 281.031 185.677 281.73 185.677 282.458C185.677 282.618 185.663 282.801 185.634 283.004C185.62 283.194 185.597 283.376 185.568 283.551H175.914V281.803H184.39L183.427 282.589C183.559 281.832 183.487 281.155 183.208 280.558C182.932 279.961 182.524 279.488 181.987 279.138C181.447 278.789 180.837 278.614 180.15 278.614C179.466 278.614 178.84 278.789 178.273 279.138C177.704 279.488 177.262 279.99 176.94 280.645C176.635 281.286 176.511 282.051 176.569 282.939C176.511 283.798 176.641 284.555 176.963 285.211C177.296 285.851 177.765 286.354 178.36 286.718C178.972 287.068 179.636 287.242 180.349 287.242C181.133 287.242 181.797 287.06 182.335 286.696C182.875 286.332 183.312 285.866 183.645 285.298L185.35 286.172C185.117 286.711 184.755 287.206 184.257 287.657C183.777 288.094 183.203 288.444 182.533 288.706C181.878 288.968 181.142 289.099 180.326 289.099ZM192.216 288.837L187.649 272.563H189.9L193.722 286.893H193.199L197.174 272.563H199.425L203.377 286.893H202.831L206.677 272.563H208.927L204.36 288.837H201.98L198.005 274.573H198.571L194.596 288.837H192.216ZM216.004 289.099C214.868 289.099 213.856 288.83 212.968 288.291C212.077 287.752 211.379 287.017 210.87 286.085C210.361 285.138 210.106 284.082 210.106 282.917C210.106 281.738 210.353 280.689 210.847 279.772C211.359 278.854 212.043 278.133 212.902 277.609C213.776 277.07 214.75 276.801 215.828 276.801C216.702 276.801 217.475 276.961 218.145 277.281C218.829 277.587 219.404 278.009 219.869 278.548C220.349 279.073 220.714 279.677 220.962 280.361C221.223 281.031 221.355 281.73 221.355 282.458C221.355 282.618 221.341 282.801 221.312 283.004C221.298 283.194 221.275 283.376 221.246 283.551H211.592V281.803H220.068L219.105 282.589C219.237 281.832 219.162 281.155 218.886 280.558C218.61 279.961 218.202 279.488 217.665 279.138C217.124 278.789 216.512 278.614 215.828 278.614C215.144 278.614 214.518 278.789 213.951 279.138C213.382 279.488 212.937 279.99 212.618 280.645C212.313 281.286 212.187 282.051 212.247 282.939C212.187 283.798 212.319 284.555 212.641 285.211C212.974 285.851 213.44 286.354 214.038 286.718C214.65 287.068 215.311 287.242 216.027 287.242C216.811 287.242 217.475 287.06 218.013 286.696C218.553 286.332 218.99 285.866 219.323 285.298L221.028 286.172C220.795 286.711 220.43 287.206 219.935 287.657C219.455 288.094 218.881 288.444 218.211 288.706C217.556 288.968 216.82 289.099 216.004 289.099ZM227.96 289.099C227.19 289.099 226.506 288.961 225.908 288.684C225.325 288.393 224.868 288 224.531 287.504C224.198 286.995 224.028 286.412 224.028 285.757C224.028 285.131 224.161 284.57 224.422 284.075C224.698 283.565 225.121 283.136 225.69 282.786C226.273 282.437 227 282.189 227.874 282.043L232.243 281.322V283.026L228.334 283.682C227.575 283.813 227.023 284.053 226.673 284.402C226.336 284.752 226.17 285.182 226.17 285.691C226.17 286.172 226.359 286.572 226.739 286.893C227.133 287.213 227.618 287.373 228.202 287.373C228.943 287.373 229.584 287.22 230.125 286.915C230.677 286.594 231.108 286.165 231.412 285.626C231.734 285.087 231.892 284.49 231.892 283.835V280.842C231.892 280.201 231.654 279.684 231.174 279.291C230.705 278.883 230.087 278.679 229.317 278.679C228.644 278.679 228.049 278.854 227.523 279.204C227.015 279.538 226.635 279.99 226.388 280.558L224.621 279.64C224.839 279.102 225.187 278.621 225.667 278.199C226.15 277.762 226.71 277.42 227.351 277.172C227.989 276.925 228.662 276.801 229.36 276.801C230.263 276.801 231.056 276.975 231.74 277.325C232.424 277.66 232.956 278.133 233.335 278.745C233.729 279.342 233.924 280.041 233.924 280.842V288.837H231.938V286.609L232.309 286.74C232.062 287.206 231.726 287.614 231.303 287.963C230.881 288.313 230.386 288.589 229.817 288.793C229.251 288.997 228.63 289.099 227.96 289.099ZM240.794 288.837L236.184 277.063H238.457L242.148 287.024H241.36L245.074 277.063H247.347L242.717 288.837H240.794ZM255.024 289.099C253.889 289.099 252.874 288.83 251.986 288.291C251.098 287.752 250.4 287.017 249.891 286.085C249.379 285.138 249.126 284.082 249.126 282.917C249.126 281.738 249.373 280.689 249.868 279.772C250.377 278.854 251.064 278.133 251.923 277.609C252.797 277.07 253.771 276.801 254.849 276.801C255.723 276.801 256.493 276.961 257.166 277.281C257.85 277.587 258.424 278.009 258.89 278.548C259.37 279.073 259.735 279.677 259.982 280.361C260.244 281.031 260.376 281.73 260.376 282.458C260.376 282.618 260.362 282.801 260.333 283.004C260.316 283.194 260.296 283.376 260.267 283.551H250.612V281.803H259.086L258.126 282.589C258.258 281.832 258.183 281.155 257.907 280.558C257.631 279.961 257.223 279.488 256.683 279.138C256.145 278.789 255.533 278.614 254.849 278.614C254.165 278.614 253.538 278.789 252.969 279.138C252.403 279.488 251.957 279.99 251.638 280.645C251.331 281.286 251.207 282.051 251.268 282.939C251.207 283.798 251.339 284.555 251.658 285.211C251.995 285.851 252.46 286.354 253.058 286.718C253.671 287.068 254.332 287.242 255.044 287.242C255.832 287.242 256.493 287.06 257.033 286.696C257.571 286.332 258.008 285.866 258.344 285.298L260.048 286.172C259.816 286.711 259.451 287.206 258.956 287.657C258.476 288.094 257.898 288.444 257.229 288.706C256.573 288.968 255.838 289.099 255.024 289.099Z" fill="#171A1F"></path></svg>