<?xml version="1.0" encoding="UTF-8"?>
<svg id="Layer_1" data-name="Layer 1" xmlns="http://www.w3.org/2000/svg" xmlns:xlink="http://www.w3.org/1999/xlink" viewBox="0 0 662.65 295">
  <defs>
    <style>
      .cls-1 {
        fill: url(#linear-gradient);
      }

      .cls-1, .cls-2 {
        stroke-width: 0px;
      }

      .cls-2 {
        fill: #000;
      }
    </style>
    <linearGradient id="linear-gradient" x1="89.35" y1="98.11" x2="176.57" y2="311.09" gradientTransform="translate(0 352.6) scale(1 -1)" gradientUnits="userSpaceOnUse">
      <stop offset="0" stop-color="#f72585"/>
      <stop offset=".53" stop-color="#3a00ff"/>
      <stop offset="1" stop-color="#4cc9f0"/>
    </linearGradient>
  </defs>
  <path class="cls-2" d="M348.42,170.09v45.86h-20.42v-41.19c0-12.07-5.81-17.22-15.77-17.22-10.46,0-17.93,5.95-17.93,22.05v36.37h-20.25v-74.34h20.09v11.26h.33c5.15-8.53,13.78-13.68,25.07-13.68,16.6,0,28.89,9.01,28.89,30.89Z"/>
  <path class="cls-2" d="M361.64,187.14v-45.54h20.92v42c0,11.58,5.64,16.57,14.44,16.57,10.13,0,16.93-6.44,16.93-22.85v-35.72h20.42v74.34h-20.09v-11.42h-.33c-4.65,8.05-11.95,13.84-23.91,13.84-15.61,0-28.39-9.17-28.39-31.22Z"/>
  <path class="cls-2" d="M529.65,178.78c0,23.33-18.1,39.58-42.5,39.58s-42.5-16.25-42.5-39.58,18.1-39.58,42.5-39.58,42.5,16.25,42.5,39.58ZM465.57,178.78c0,12.71,9.13,20.92,21.58,20.92s21.42-8.21,21.42-20.92-8.97-20.92-21.42-20.92-21.58,8.21-21.58,20.92Z"/>
  <path class="cls-2" d="M614.21,170.09v45.86h-20.42v-41.19c0-12.07-5.81-17.22-15.77-17.22-10.46,0-17.93,5.95-17.93,22.05v36.37h-20.25v-74.34h20.09v11.26h.33c5.15-8.53,13.78-13.68,25.07-13.68,16.6,0,28.88,9.01,28.88,30.89Z"/>
  <path class="cls-1" d="M173.28,33.57l-44.99,25.18v40.77l-36.42-20.4h-.02l-43.41,24.3v133.7l43.39,24.3h.02l46.59-26.09v-38.98l34.84,19.49,44.99-25.18V58.76l-44.99-25.18ZM58.6,109.12l33.22-18.58h.02l36.42,20.38v68.37l-69.66-38.98v-31.18ZM128.27,229.65l-36.44,20.38-33.22-18.59v-79.75l69.66,38.98v38.98ZM208.1,184.95l-34.82,19.49-34.82-19.47v-68.37l69.66,38.98v29.37h-.02ZM208.1,144.2l-69.66-38.98v-40.77l34.84-19.49,34.82,19.49v79.75Z"/>
</svg>